<?xml version="1.0" encoding="UTF-8"?>
<svg id="_レイヤー_1" data-name="レイヤー 1" xmlns="http://www.w3.org/2000/svg" width="29.68" height="29.68" viewBox="0 0 29.68 29.68">
  <defs>
    <style>
      .cls-1 {
        fill: #2ea7e0;
      }

      .cls-2 {
        fill: #fff;
      }
    </style>
  </defs>
  <circle class="cls-2" cx="14.84" cy="14.84" r="14.84"/>
  <g>
    <path class="cls-1" d="M16.33,19.37l-.27.12s-.68.32-1.22-.32c-.53-.64-1.26-2.08-2.04-3.73-.77-1.66-1.07-2.94-.94-3.53.14-.6.42-.61.42-.61l.22-.1-2.53-5.4-.37.17s-1.8,1.85-1.42,5.71c.38,3.85,2.96,7.98,3.03,8.13.07.14,1.29,2.12,2.67,3.44,1.38,1.31,4.71,1.83,4.71,1.83l.32-.15-2.59-5.54Z"/>
    <path class="cls-1" d="M13.28,10.83l1.48-.69s.27-.16.35-.36c.07-.2.04-.39.04-.39l-2.09-4.48s-.07-.07-.28-.18c-.22-.11-.29-.1-.29-.1l-1.73.81,2.53,5.4Z"/>
    <path class="cls-1" d="M19.21,18.38c-.33-.08-.62-.07-.62-.07l-1.48.7,2.59,5.54,1.53-.72s.12-.12.25-.35c.13-.24.04-.49.04-.49l-2-4.28s.03-.25-.3-.33Z"/>
  </g>
</svg>