<?xml version="1.0" encoding="UTF-8"?>
<svg id="_レイヤー_1" data-name="レイヤー 1" xmlns="http://www.w3.org/2000/svg" width="29.68" height="29.68" viewBox="0 0 29.68 29.68">
  <defs>
    <style>
      .cls-1 {
        fill: #7ecacf;
      }

      .cls-2 {
        fill: #fff;
      }
    </style>
  </defs>
  <circle class="cls-2" cx="14.84" cy="14.84" r="14.84"/>
  <path class="cls-1" d="M23.53,9.94c-.08-.4-.25-.76-.5-1.06-.05-.07-.11-.12-.16-.18-.44-.44-1.05-.71-1.71-.71h-12.62c-.67,0-1.28.27-1.71.71-.06.06-.11.12-.16.18-.25.3-.42.66-.5,1.06-.03.15-.05.31-.05.47v8.86c0,.34.07.67.2.96.12.28.3.54.51.75.05.05.11.1.17.15.42.35.96.56,1.55.56h12.62c.59,0,1.13-.21,1.55-.56.06-.05.11-.1.17-.15.21-.21.39-.47.51-.75h0c.13-.3.2-.62.2-.96v-8.86c0-.16-.02-.32-.05-.47ZM7.69,9.57c.22-.22.51-.35.84-.35h12.62c.33,0,.62.13.84.35.04.04.07.08.11.12l-6.62,5.77c-.18.16-.41.24-.64.24s-.45-.08-.64-.24l-6.61-5.77s.07-.08.1-.12ZM7.35,19.27v-8.3l4.79,4.18-4.78,4.17s0-.03,0-.05ZM21.15,20.46h-12.62c-.21,0-.41-.06-.59-.16l5.05-4.4.47.41c.39.34.89.52,1.38.52s.99-.17,1.38-.52l.47-.41,5.05,4.4c-.17.1-.37.16-.59.16ZM22.34,19.27s0,.04,0,.05l-4.78-4.17,4.79-4.18v8.29Z"/>
</svg>