<?xml version="1.0" encoding="UTF-8"?>
<svg id="_レイヤー_1" data-name="レイヤー 1" xmlns="http://www.w3.org/2000/svg" width="29.68" height="29.68" viewBox="0 0 29.68 29.68">
  <defs>
    <style>
      .cls-1 {
        fill: #fff;
      }

      .cls-2 {
        fill: #3aae36;
      }
    </style>
  </defs>
  <circle class="cls-1" cx="14.84" cy="14.84" r="14.84"/>
  <g id="FULL_COLOR_ICON" data-name="FULL COLOR ICON">
    <g id="TYPE_A" data-name="TYPE A">
      <g>
        <path class="cls-2" d="M12.01,11.65h-.94c-.14,0-.26.12-.26.26v5.86c0,.14.12.26.26.26h.94c.14,0,.26-.12.26-.26v-5.86c0-.14-.12-.26-.26-.26"/>
        <path class="cls-2" d="M18.5,11.65h-.94c-.14,0-.26.12-.26.26v3.48l-2.68-3.63s-.01-.02-.02-.03c0,0,0,0,0,0,0,0-.01-.01-.02-.02,0,0,0,0,0,0,0,0,0,0-.01-.01,0,0,0,0,0,0,0,0,0,0-.01,0,0,0,0,0,0,0,0,0,0,0-.01,0,0,0,0,0,0,0,0,0,0,0-.02,0,0,0,0,0,0,0,0,0-.01,0-.02,0,0,0,0,0,0,0,0,0,0,0-.02,0,0,0,0,0-.01,0,0,0,0,0-.01,0,0,0,0,0-.01,0,0,0,0,0,0,0h-.94c-.14,0-.26.12-.26.26v5.86c0,.14.12.26.26.26h.94c.14,0,.26-.12.26-.26v-3.48l2.69,3.63s.04.05.07.06c0,0,0,0,0,0,0,0,.01,0,.02,0,0,0,0,0,0,0,0,0,0,0,.01,0,0,0,0,0,.01,0,0,0,0,0,0,0,0,0,.01,0,.02,0,0,0,0,0,0,0,.02,0,.04,0,.07,0h.94c.14,0,.26-.12.26-.26v-5.86c0-.14-.12-.26-.26-.26"/>
        <path class="cls-2" d="M9.74,16.57h-2.56v-4.65c0-.14-.12-.26-.26-.26h-.94c-.14,0-.26.12-.26.26v5.86h0c0,.07.03.13.07.18,0,0,0,0,0,0,0,0,0,0,0,0,.05.05.11.07.18.07h3.77c.14,0,.26-.12.26-.26v-.94c0-.14-.12-.26-.26-.26"/>
        <path class="cls-2" d="M23.71,13.12c.14,0,.26-.12.26-.26v-.94c0-.14-.12-.26-.26-.26h-3.77c-.07,0-.13.03-.18.07,0,0,0,0,0,0,0,0,0,0,0,0-.04.05-.07.11-.07.18h0v5.86h0c0,.07.03.13.07.18,0,0,0,0,0,0,0,0,0,0,0,0,.05.05.11.07.18.07h3.77c.14,0,.26-.12.26-.26v-.94c0-.14-.12-.26-.26-.26h-2.56v-.99h2.56c.14,0,.26-.12.26-.26v-.94c0-.14-.12-.26-.26-.26h-2.56v-.99h2.56Z"/>
      </g>
    </g>
  </g>
</svg>