<?xml version="1.0" encoding="UTF-8"?>
<svg id="_レイヤー_1" data-name="レイヤー 1" xmlns="http://www.w3.org/2000/svg" width="91.06" height="85.7" viewBox="0 0 91.06 85.7">
  <defs>
    <style>
      .cls-1 {
        fill: none;
        stroke: #bb231f;
        stroke-miterlimit: 10;
        stroke-width: .81px;
      }

      .cls-2 {
        fill: #231815;
      }
    </style>
  </defs>
  <circle class="cls-1" cx="45.53" cy="40.42" r="40.01"/>
  <g>
    <g>
      <path class="cls-2" d="M23.46,43.27c-1.69,0-5.64-.82-7.87-3.36l.14-.82c1.9.89,4.06,1.65,6,1.65,3.32,0,6.31-3.22,6.31-8.71,0-4.46-1.87-7.96-4.66-7.96-3.17,0-6.31,3.98-7.3,5.21-.74.89-3.99,5.15-4.66,5.97,2.5,5.83,7.48,25.94,7.65,29.57.04.21.04.41.04.69,0,2.33-.78,3.22-1.34,3.22-1.2,0-1.59-2.88-1.76-3.98-1.62-11.12-2.68-18.18-6.14-27.86-1.48,1.78-1.9,2.4-3.84,5.42-.56.82-.88,1.24-1.48,1.24-1.38,0-3.42-2.95-3.77-5.15l.28-.69c.67.62,1.66,1.1,2.36,1.1,1.16,0,4.34-3.57,5.26-4.87-.28-.75-1.55-3.91-1.8-4.6-.42-1.1-1.2-3.16-1.2-4.94,0-.14.04-4.8,2.65-4.8.99,0,1.27.14,4.23,2.26.6.41,2.22,1.58,2.61,1.58.64,0,1.16-.75,1.16-2.26,0-3.43-2.29-5.35-3.92-6.66l.11-.75c3.1.34,6.7,3.71,7.05,9.4,1.97-1.44,3.81-1.44,4.3-1.44,5.01,0,6.49,7.14,6.49,11.32,0,7.27-3.6,10.22-6.91,10.22ZM9.25,21.72c-1.13,0-1.45,1.37-1.45,2.13,0,1.65,1.94,6.38,2.68,8.17.07-.07,4.69-4.94,5.11-5.42-1.34-1.44-4.62-4.87-6.35-4.87Z"/>
      <path class="cls-2" d="M17.78,69.51c-1.81,0-2.26-2.9-2.51-4.46l-.03-.18c-1.51-10.34-2.53-17.33-5.64-26.4-.85,1.09-1.44,1.97-2.91,4.26-.57.83-1.09,1.59-2.14,1.59-2,0-4.18-3.51-4.55-5.81-.02-.14,0-.29.05-.42l.28-.69c.1-.24.3-.41.56-.47.25-.05.51.02.7.19.6.56,1.41.89,1.83.89.66-.09,3.1-2.53,4.37-4.21-.16-.41-.4-1.01-.64-1.62-.42-1.07-.87-2.21-1.01-2.59-.4-1.04-1.25-3.23-1.25-5.21,0-2.08.72-5.59,3.43-5.59,1.26,0,1.71.27,4.69,2.41l.25.18c.39.27,1.5,1.05,1.93,1.24.1-.09.35-.47.35-1.46,0-3.13-2.18-4.89-3.62-6.05-.22-.17-.32-.45-.29-.72l.11-.75c.06-.42.43-.72.86-.67,3.23.36,6.81,3.55,7.62,8.85,1.14-.6,2.37-.9,3.66-.9,5.75,0,7.27,7.92,7.27,12.1,0,7.6-3.87,11.01-7.7,11.01-2.04,0-6.14-.99-8.45-3.63-.16-.18-.22-.42-.18-.65l.14-.82c.04-.24.19-.45.41-.56.22-.11.47-.12.7-.02,2.23,1.04,4.13,1.57,5.66,1.57,2.75,0,5.53-2.72,5.53-7.93,0-4.09-1.66-7.18-3.87-7.18-2.76,0-5.69,3.67-6.65,4.87-.45.54-1.64,2.09-2.69,3.45-.67.87-1.31,1.7-1.71,2.21,2.48,6.17,7.31,25.46,7.53,29.36.04.25.04.49.04.77,0,2.96-1.14,4.01-2.12,4.01ZM9.88,36.1s.09,0,.14.01c.28.05.51.24.6.51,3.53,9.87,4.58,17.09,6.17,28.01l.03.18c.38,2.42.76,2.99.94,3.11.17-.15.58-.79.58-2.42,0-.25,0-.41-.02-.56,0-.03,0-.06-.01-.09-.17-3.44-5.03-23.33-7.59-29.3-.12-.27-.07-.58.11-.8.3-.37,1.11-1.42,1.98-2.55,1.11-1.44,2.26-2.93,2.68-3.43,1.11-1.39,4.39-5.5,7.9-5.5,3.15,0,5.44,3.68,5.44,8.74,0,6.24-3.57,9.5-7.1,9.5-1.16,0-2.43-.24-3.86-.72,2,1.25,4.45,1.69,5.59,1.69,3.05,0,6.13-2.92,6.13-9.44,0-4.24-1.52-10.54-5.71-10.54-1.38,0-2.67.43-3.84,1.29-.23.17-.54.2-.8.08s-.43-.37-.45-.66c-.25-4.02-2.21-6.81-4.4-8.02,1.35,1.31,2.72,3.19,2.72,5.98,0,2.25-1.05,3.05-1.95,3.05-.32,0-.7-.16-1.48-.65.75.69,1.58,1.52,2.48,2.49.27.29.28.75.01,1.05-.37.42-5,5.31-5.16,5.46-.19.18-.45.26-.7.21-.25-.05-.47-.23-.57-.47-1.84-4.44-2.74-7.21-2.74-8.47,0-1.64.97-3.47,3.1-2.75-1.08-.72-1.29-.72-1.79-.72-1.78,0-1.86,3.98-1.86,4.02,0,1.68.8,3.77,1.15,4.66.14.39.58,1.51,1,2.56.35.87.67,1.7.8,2.04.09.24.06.51-.09.73-.04.05-3.93,5.2-5.9,5.2-.54,0-1.12-.18-1.65-.45.61,1.82,2.11,3.62,2.78,3.62.17,0,.31-.13.84-.89,1.94-3.03,2.37-3.65,3.89-5.48.15-.18.37-.28.6-.28ZM9.25,22.51c-.54,0-.66,1.08-.66,1.34,0,.54.29,2.12,2.16,6.75,1.07-1.12,2.89-3.06,3.78-4-3.61-3.79-4.95-4.09-5.28-4.09Z"/>
    </g>
    <g>
      <path class="cls-2" d="M51.51,64.2c-1.73,2.47-4.59,3.84-7.09,3.84-3.42,0-6.74-2.68-6.74-7.75,0-3.84,2.29-7.48,5.08-7.48,2.47,0,3.6,1.72,4.62,4.25.85,2.06,1.09,3.71,1.31,5.15.63-.55,1.3-1.17,2.05-3.02,1.23-3.02,1.52-6.52,1.52-9.19,0-7.21-2.12-11.8-5.26-11.8-2.89,0-6.91,4.25-8.39,6.66-1.27,2.06-2.33,4.25-2.96,5.63-1.48,3.16-1.69,3.36-2.15,3.36-.78,0-.88-.96-.88-1.78s.25-4.46.49-5.22c.21-.75,1.94-2.74,2.26-3.22,2.15-3.71,3.67-7.21,6.38-13.31.63-1.51,3.6-7.89,4.13-9.26.21-.55.67-1.72.67-2.2,0-.41-.18-.55-.35-.55-1.27,0-4.34,3.09-4.73,3.5-1.73,1.78-1.94,1.99-2.36,1.99-.07,0-1.9-.27-2.61-2.54-.28-.82-.78-2.74-.99-5.42l.35-.14c1.23,2.4,1.94,3.29,3.49,3.29,2.68,0,5.82-2.26,7.27-4.46.39-.55.6-.89,1.16-.89,1.13,0,3.56,3.64,3.56,5.35,0,1.24-.18,1.3-1.66,2.06-.46.21-2.08,2.47-2.4,3.09-3.35,6.52-3.53,6.93-6,11.8-.88,1.78-2.26,4.19-2.72,5.42,1.27-1.44,5.71-6.04,8.85-6.04,3.32,0,7.55,4.32,7.55,14.55,0,6.11-1.52,11.53-3.46,14.34ZM42.27,55.83c-.14,0-3,0-3,3.91,0,1.99.81,4.53,4.13,4.53.99,0,1.8-.07,2.72-.76-.53-4.6-1.73-7.68-3.84-7.68Z"/>
      <path class="cls-2" d="M44.42,68.82c-3.74,0-7.52-2.93-7.52-8.54,0-4.48,2.68-8.26,5.86-8.26s4.42,2.45,5.35,4.75c.58,1.41.89,2.64,1.09,3.72.25-.38.52-.89.8-1.59.97-2.37,1.46-5.37,1.46-8.9,0-6.49-1.84-11.02-4.47-11.02-2.35,0-6.15,3.72-7.73,6.28-.95,1.54-1.91,3.35-2.92,5.54-1.48,3.15-1.83,3.82-2.86,3.82-.76,0-1.67-.45-1.67-2.57,0-.78.23-4.54.53-5.46.17-.61.9-1.56,1.83-2.75.24-.3.43-.54.51-.67,1.95-3.37,3.39-6.59,5.76-11.94l.56-1.26c.27-.63.96-2.16,1.69-3.78.99-2.19,2.12-4.68,2.42-5.45.26-.67.43-1.16.53-1.49-.94.52-2.64,2-3.64,3.06-1.88,1.94-2.17,2.24-2.93,2.24-.48,0-2.57-.55-3.36-3.09-.36-1.05-.82-3.08-1.02-5.59-.03-.35.18-.67.5-.79l.35-.14c.37-.15.8.02.98.37,1.27,2.47,1.79,2.87,2.8,2.87,2.41,0,5.31-2.13,6.61-4.11l.07-.1c.38-.54.81-1.14,1.75-1.14,1.82,0,4.35,4.26,4.35,6.14,0,1.62-.45,1.92-2.01,2.72l-.07.04c-.35.25-1.75,2.14-2.06,2.75-2.29,4.45-3.1,6.05-4.16,8.18-.5.98-1.05,2.08-1.83,3.62-.2.4-.42.83-.65,1.27,1.84-1.55,4.13-3.03,6.09-3.03,4.14,0,8.33,5.27,8.33,15.33,0,5.81-1.41,11.62-3.6,14.79,0,0,0,0,0,0-1.78,2.54-4.81,4.18-7.73,4.18ZM38.48,59.68c-.01.2-.02.4-.02.6,0,4.79,3.09,6.97,5.95,6.97,2.42,0,4.95-1.38,6.45-3.51,2.02-2.92,3.32-8.38,3.32-13.89s-1.84-13.76-6.76-13.76c-2.51,0-6.51,3.78-8.26,5.77-.25.28-.67.35-.99.15-.32-.19-.46-.59-.33-.95.31-.84.98-2.11,1.69-3.45.37-.71.75-1.42,1.06-2.05.78-1.55,1.34-2.64,1.83-3.63,1.07-2.12,1.88-3.73,4.17-8.19.2-.38,1.96-3.08,2.77-3.44l.04-.02q1.16-.59,1.16-1.32c0-1.4-2.09-4.4-2.81-4.57-.07,0-.1,0-.43.48l-.06.08c-1.54,2.34-4.93,4.79-7.91,4.79-1.21,0-2.03-.48-2.73-1.32.25,1.45.54,2.32.61,2.55.5,1.59,1.6,1.94,1.88,2,.2-.11.9-.83,1.78-1.74.35-.38,3.57-3.74,5.29-3.74.55,0,1.14.42,1.14,1.33,0,.51-.27,1.3-.7,2.41-.34.88-1.43,3.28-2.48,5.6-.73,1.61-1.42,3.12-1.68,3.75l-.57,1.27c-2.4,5.39-3.84,8.65-5.86,12.13-.12.19-.34.47-.62.81-.44.55-1.46,1.84-1.56,2.23-.2.62-.46,4.07-.46,5,0,.52.05.79.1.92.35-.5,1.07-2.04,1.44-2.83,1.04-2.24,2.02-4.11,3.01-5.71,1.51-2.45,5.72-7.03,9.06-7.03,3.67,0,6.04,4.94,6.04,12.59,0,3.74-.53,6.94-1.57,9.49-.77,1.92-1.51,2.67-2.26,3.31-.22.19-.52.24-.79.14s-.46-.34-.5-.62c-.21-1.39-.44-2.98-1.25-4.96-1.12-2.78-2.14-3.77-3.9-3.77-1.51,0-2.93,1.44-3.7,3.45.79-1.53,2.23-2,3.21-2,2.43,0,3.98,2.82,4.62,8.38.03.28-.09.55-.31.72-1.12.84-2.15.91-3.19.91-3.07,0-4.91-1.99-4.91-5.31v-.05ZM51.51,64.2h0,0ZM42.27,56.61c-.37,0-2.21.15-2.21,3.13,0,1.71.58,3.75,3.34,3.75.82,0,1.34-.06,1.88-.36-.53-4.15-1.62-6.51-3.01-6.51Z"/>
    </g>
    <g>
      <path class="cls-2" d="M87.87,19.6h-21.37c-.81,2.61-3.35,10.77-8.11,14.89l-.21-.34c5.5-9.81,6.98-20.45,7.62-25.59l3.49,2.47c.21.14.39.55.39.96,0,1.03-.6,1.17-1.55,1.24-.49,2.4-.81,3.5-1.13,4.73h16.58l1.38-3.43c.39-.96.6-1.17.88-1.17.25,0,.32.07.85,1.1l1.27,2.33c.67,1.24.74,1.37.74,1.85,0,.96-.39.96-.81.96ZM89.25,72.29c-1.16,0-2.79-2.4-3.77-4.6-2.05-4.73-3.99-11.18-4.37-31.56h-20.67l-.53-1.65h20.81l1.2-2.88c.21-.48.46-1.1.88-1.1.32,0,.53.27,1.02,1.3l1.31,2.68c.18.41.32.69.32,1.3,0,1.03-.39,1.24-1.52,1.78-.07,5.83.39,13.31,1.38,19.62.46,2.88,1.41,6.52,2.01,6.52.35,0,.49-.69.63-1.24.39-1.65.53-2.54,1.69-10.7h.39c-.21,3.57-.67,11.53-.67,12.35,0,.62.04,2.47.53,4.25.07.27.39,1.51.39,2.2,0,.96-.46,1.72-1.02,1.72ZM76.94,67.35c-1.02,0-1.48-1.37-3.21-6.66-.56-1.65-1.16-3.22-2.19-5.56-3.7,7.89-7.3,12.28-11.29,14.68l-.28-.62c5.47-6.79,8.25-12.9,10.05-17.29-1.8-3.5-3.74-6.79-6.07-8.85l.11-.55c1.13.48,3.77,1.65,7.16,6.18,1.87-5.42,2.61-8.99,3.03-10.91l3.35,3.02c.25.21.39.75.39,1.1,0,.82-.56.96-.71,1.03-.04,0-.39.07-1.13.21-.92,2.81-1.76,5.28-3,8.37,3.67,6.04,4.97,10.91,4.97,13.31,0,1.17-.6,2.54-1.2,2.54ZM85.65,27.49h-20.49l-.49-1.65h16.89l1.45-3.29c.39-.82.56-1.3.92-1.3.21,0,.42.14.95,1.24l1.2,2.54c.35.76.46,1.24.46,1.58,0,.89-.35.89-.88.89Z"/>
      <path class="cls-2" d="M89.25,73.08c-2.11,0-4.11-4.21-4.49-5.06-2.01-4.64-4-10.87-4.43-31.1h-19.9c-.34,0-.64-.22-.75-.54l-.5-1.55c-.1.09-.19.17-.29.26-.17.15-.4.22-.63.18s-.43-.17-.55-.36l-.21-.34c-.15-.24-.16-.55-.02-.8,5.64-10.07,7.01-21.14,7.52-25.31.03-.27.21-.51.46-.62.25-.11.54-.08.77.08l3.49,2.47c.49.32.72,1.04.72,1.6,0,1.43-.92,1.83-1.68,1.95-.31,1.46-.55,2.41-.77,3.23h15.03l1.18-2.94c.28-.7.67-1.66,1.61-1.66.76,0,1.01.48,1.54,1.52l1.26,2.32c.69,1.28.84,1.54.84,2.23,0,1.74-1.2,1.74-1.59,1.74h-20.8c-.35,1.12-.9,2.8-1.68,4.68h15.65l1.37-3.11c.35-.76.69-1.48,1.5-1.48s1.18.7,1.66,1.68l1.2,2.55c.36.78.53,1.39.53,1.91,0,1.68-1.17,1.68-1.67,1.68h-20.49c-.35,0-.65-.23-.75-.56l-.08-.26c-1.05,2.18-2.39,4.42-4.03,6.25h19.89l1.04-2.49c.26-.59.65-1.49,1.57-1.49s1.28.81,1.73,1.75l1.36,2.8c.17.39.34.79.34,1.52,0,1.33-.62,1.81-1.52,2.27-.04,6.06.48,13.3,1.37,19.01.33,2.09.8,3.9,1.16,4.99.34-1.48.52-2.66,1.62-10.4.06-.39.39-.67.78-.67h.39c.22,0,.42.09.57.25.15.16.22.37.21.58-.26,4.36-.67,11.56-.67,12.3,0,.67.05,2.41.5,4.05.19.74.42,1.75.42,2.4,0,1.42-.78,2.5-1.81,2.5ZM61,35.35h20.1c.43,0,.78.34.78.77.39,20.56,2.34,26.72,4.31,31.27,1.12,2.49,2.49,4.05,3.02,4.12.09-.08.28-.39.28-.93,0-.37-.14-1.12-.36-2-.48-1.74-.55-3.54-.55-4.45,0-.16.02-.54.04-1.1-.17.65-.47,1.47-1.3,1.47-1.09,0-2.03-2.42-2.78-7.18-.93-5.95-1.46-13.52-1.39-19.76,0-.3.17-.57.44-.7,1.08-.52,1.08-.53,1.08-1.08,0-.41-.07-.57-.21-.9l-.04-.1-1.29-2.64c-.13-.28-.23-.47-.31-.61-.05.11-.1.22-.14.3l-.03.08-1.19,2.87c-.12.29-.41.48-.72.48h-19.74l.03.08ZM66.41,9.94c-.54,4.19-1.79,12.13-5.35,20.17,2.59-3.99,4.09-8.82,4.69-10.75.1-.33.41-.55.75-.55h21.4s0-.1,0-.18c0-.27,0-.29-.65-1.48l-1.27-2.33c-.04-.09-.11-.21-.18-.34-.04.09-.09.2-.14.33l-1.37,3.43c-.12.3-.41.49-.73.49h-16.58c-.24,0-.47-.11-.62-.3s-.2-.44-.14-.68l.17-.67c.27-1.02.55-2.08.95-4.02.07-.34.36-.6.71-.62.6-.04.74-.11.78-.14,0,0,.05-.07.05-.31,0-.16-.06-.31-.09-.35l-2.39-1.68ZM65.74,26.7h20s0-.07,0-.11c0-.28-.13-.7-.38-1.25l-1.2-2.54c-.08-.18-.16-.32-.22-.43-.04.07-.07.15-.1.22l-.13.28-1.44,3.28c-.13.28-.41.47-.72.47h-15.84l.02.08ZM60.26,70.61c-.08,0-.16-.01-.23-.04-.21-.07-.39-.22-.48-.42l-.28-.62c-.12-.27-.08-.59.1-.82,5.17-6.42,7.96-12.3,9.8-16.76-1.56-3.01-3.45-6.29-5.72-8.3-.21-.18-.3-.46-.25-.74l.11-.55c.05-.23.19-.43.4-.54.21-.11.46-.12.67-.03.98.42,3.44,1.46,6.57,5.27,1.42-4.32,2.07-7.28,2.47-9.11l.07-.34c.06-.27.26-.49.53-.58.27-.09.56-.02.76.16l3.35,3.02c.51.42.65,1.28.65,1.68,0,.58-.2,1.34-1.14,1.73-.09.04-.25.08-.35.08.01,0,.04,0,.09,0-.06,0-.24.04-.55.1h-.06c-.86,2.64-1.64,4.89-2.73,7.63,3.6,6.02,4.89,10.85,4.89,13.38,0,1.36-.71,3.32-1.98,3.32-1.6,0-2.05-1.38-3.95-7.2-.46-1.33-.92-2.54-1.48-3.91-3.35,6.74-6.82,11.04-10.84,13.46-.12.07-.26.11-.4.11ZM66.9,45.16c1.47,1.96,2.73,4.26,3.83,6.39.1.2.12.44.03.66-1.64,4.01-4.03,9.2-8.21,14.93,2.94-2.65,5.63-6.66,8.29-12.33.13-.28.41-.45.72-.45.31,0,.58.19.71.47.93,2.12,1.57,3.74,2.21,5.62,1.09,3.34,1.9,5.81,2.38,6.1.19-.24.51-.96.51-1.73,0-2.26-1.27-7-4.86-12.9-.13-.21-.15-.47-.06-.7,1.21-3.02,2.03-5.42,2.98-8.32.09-.27.32-.48.6-.53l.52-.1c.28-.05.44-.08.54-.1.11-.05.14-.07.14-.27s-.08-.45-.14-.52l-2.34-2.11c-.47,2.11-1.24,5.27-2.77,9.68-.09.27-.33.47-.62.52-.29.04-.57-.07-.75-.31-1.38-1.85-2.64-3.12-3.7-4Z"/>
    </g>
  </g>
  <g>
    <path class="cls-2" d="M65.27,83.41v.16c-.23,0-.33.03-.39.1-.08.07-.09.19-.09.56v.53c0,.33,0,.43.02.63-.29.03-.43.05-.74.14-.44.13-.7.17-1.03.17-1.37,0-2.18-.88-2.18-2.36s.88-2.52,2.24-2.52c.32,0,.47.03.97.14.09.03.19.04.28.04.12,0,.21-.02.37-.08v1.45h-.23c-.06-.37-.15-.62-.31-.85-.24-.34-.61-.53-1.02-.53-.49,0-.87.24-1.09.7-.19.41-.29.92-.29,1.52,0,.87.22,1.62.58,1.99.2.2.48.31.8.31.19,0,.41-.04.61-.13.12-.04.17-.08.26-.16v-1.07c0-.51-.06-.57-.58-.59v-.16h1.85Z"/>
    <path class="cls-2" d="M67.12,84.79c0,.57.05.63.56.65v.16h-1.94v-.16c.51-.02.56-.08.56-.65v-3.06c0-.57-.05-.63-.54-.65v-.16h1.92c.53,0,.97.07,1.22.19.39.19.58.49.58.95,0,.76-.47,1.15-1.46,1.23v.05c.33.04.55.14.78.33.21.18.31.37.61,1.07.24.57.35.69.65.71v.15h-1.23c-.29-.88-.47-1.34-.65-1.69-.2-.39-.39-.52-.8-.52h-.25v1.4ZM67.46,83.21c.75,0,1.15-.38,1.15-1.08s-.36-1.03-1.1-1.03h-.38v2.11h.34Z"/>
    <path class="cls-2" d="M70.98,81.56c.36-.47.98-.74,1.68-.74s1.3.26,1.67.74c.34.43.53,1.04.53,1.7s-.19,1.28-.53,1.7c-.38.47-.98.74-1.67.74s-1.31-.27-1.68-.74c-.34-.43-.53-1.05-.53-1.7s.19-1.26.53-1.7ZM71.68,84.94c.2.39.53.59.98.59s.77-.2.97-.59c.22-.43.32-.95.32-1.69s-.1-1.25-.32-1.68c-.21-.39-.53-.59-.97-.59s-.78.2-.98.59c-.22.43-.32.96-.32,1.68s.1,1.25.32,1.69Z"/>
    <path class="cls-2" d="M77.25,80.91v.16c-.49.02-.54.08-.54.65v1.98c0,.59.06.94.23,1.22.2.34.55.52.99.52.53,0,.93-.25,1.12-.7.1-.24.16-.63.16-1.12v-1.46c0-.88-.11-1.06-.65-1.08v-.17h1.54v.17c-.52.03-.64.23-.64,1.08v1.47c0,.66-.07,1.04-.25,1.35-.29.5-.76.72-1.47.72s-1.23-.21-1.54-.61c-.23-.3-.3-.6-.3-1.23v-2.13c0-.57-.05-.63-.55-.65v-.16h1.9Z"/>
    <path class="cls-2" d="M81.85,84.79c0,.57.06.63.6.65v.16h-1.98v-.16c.51-.02.56-.08.56-.65v-3.06c0-.57-.05-.63-.54-.65v-.16h1.89c1.28,0,1.84.39,1.84,1.3,0,.64-.26,1.05-.8,1.25-.28.1-.73.16-1.26.16h-.31v1.17ZM82.18,83.44c.39,0,.68-.09.86-.26.2-.19.31-.53.31-.93,0-.77-.37-1.16-1.1-1.16h-.4v2.35h.33Z"/>
  </g>
</svg>