<?xml version="1.0" encoding="UTF-8"?>
<svg id="_レイヤー_1" data-name="レイヤー 1" xmlns="http://www.w3.org/2000/svg" width="36" height="36" viewBox="0 0 36 36">
  <defs>
    <style>
      .cls-1 {
        fill: #fff;
      }

      .cls-2 {
        fill: #3aae36;
      }
    </style>
  </defs>
  <circle class="cls-1" cx="18" cy="18" r="18"/>
  <g id="FULL_COLOR_ICON" data-name="FULL COLOR ICON">
    <g id="TYPE_A" data-name="TYPE A">
      <g>
        <path class="cls-2" d="M14.47,13.19h-1.19c-.18,0-.33.15-.33.33v7.36c0,.18.15.33.33.33h1.19c.18,0,.33-.15.33-.33v-7.36c0-.18-.15-.33-.33-.33"/>
        <path class="cls-2" d="M22.63,13.19h-1.19c-.18,0-.33.15-.33.33v4.37l-3.37-4.56s-.02-.02-.03-.03c0,0,0,0,0,0,0,0-.01-.01-.02-.02,0,0,0,0,0,0,0,0-.01-.01-.02-.01,0,0,0,0,0,0,0,0-.01,0-.02-.01,0,0,0,0,0,0,0,0-.01,0-.02,0,0,0,0,0-.01,0,0,0-.01,0-.02,0,0,0,0,0-.01,0,0,0-.01,0-.02,0,0,0,0,0-.01,0,0,0-.01,0-.02,0,0,0,0,0-.01,0,0,0-.01,0-.02,0,0,0-.01,0-.02,0,0,0,0,0-.01,0h-1.19c-.18,0-.33.15-.33.33v7.36c0,.18.15.33.33.33h1.19c.18,0,.33-.15.33-.33v-4.37l3.38,4.56s.05.06.08.08c0,0,0,0,0,0,0,0,.01,0,.02.01,0,0,0,0,0,0,0,0,.01,0,.02,0,0,0,.01,0,.02,0,0,0,0,0,0,0,0,0,.01,0,.02,0,0,0,0,0,0,0,.03,0,.05.01.08.01h1.19c.18,0,.33-.15.33-.33v-7.36c0-.18-.15-.33-.33-.33"/>
        <path class="cls-2" d="M11.61,19.37h-3.22v-5.85c0-.18-.15-.33-.33-.33h-1.19c-.18,0-.33.15-.33.33v7.36h0c0,.09.04.17.09.23,0,0,0,0,0,0,0,0,0,0,0,0,.06.06.14.09.23.09h4.74c.18,0,.33-.15.33-.33v-1.19c0-.18-.15-.33-.33-.33"/>
        <path class="cls-2" d="M29.17,15.03c.18,0,.33-.15.33-.33v-1.19c0-.18-.15-.33-.33-.33h-4.74c-.09,0-.17.04-.23.09,0,0,0,0,0,0,0,0,0,0,0,0-.06.06-.09.14-.09.23h0v7.36h0c0,.09.04.17.09.23,0,0,0,0,0,0,0,0,0,0,0,0,.06.06.14.09.23.09h4.74c.18,0,.33-.15.33-.33v-1.19c0-.18-.15-.33-.33-.33h-3.22v-1.24h3.22c.18,0,.33-.15.33-.33v-1.19c0-.18-.15-.33-.33-.33h-3.22v-1.24h3.22Z"/>
      </g>
    </g>
  </g>
</svg>