<?xml version="1.0" encoding="UTF-8"?>
<svg id="_レイヤー_1" data-name="レイヤー 1" xmlns="http://www.w3.org/2000/svg" width="36" height="36" viewBox="0 0 36 36">
  <defs>
    <style>
      .cls-1 {
        fill: #fff;
      }
    </style>
  </defs>
  <circle class="cls-1" cx="18" cy="18" r="18"/>
  <g>
    <path d="M19.61,22.91l-.29.14s-.74.35-1.32-.35c-.58-.7-1.37-2.26-2.21-4.05-.84-1.8-1.17-3.19-1.02-3.83.15-.65.46-.67.46-.67l.24-.11-2.74-5.86-.4.18s-1.95,2.01-1.54,6.19c.41,4.18,3.21,8.67,3.29,8.82.08.16,1.4,2.31,2.9,3.73,1.5,1.42,5.11,1.99,5.11,1.99l.34-.16-2.82-6.02Z"/>
    <path d="M16.31,13.64l1.61-.75s.3-.18.38-.4c.08-.22.04-.42.04-.42l-2.27-4.87s-.07-.08-.31-.2c-.24-.12-.31-.11-.31-.11l-1.88.88,2.74,5.86Z"/>
    <path d="M22.74,21.84c-.36-.09-.68-.07-.68-.07l-1.61.76,2.81,6.02,1.66-.78s.14-.13.27-.38c.14-.26.04-.53.04-.53l-2.17-4.65s.04-.27-.33-.36Z"/>
  </g>
</svg>