<?xml version="1.0" encoding="UTF-8"?>
<svg id="_レイヤー_1" data-name="レイヤー 1" xmlns="http://www.w3.org/2000/svg" width="36" height="36" viewBox="0 0 36 36">
  <defs>
    <style>
      .cls-1 {
        fill: #7ecacf;
      }

      .cls-2 {
        fill: #fff;
      }

      .cls-3 {
        opacity: .8;
      }
    </style>
  </defs>
  <circle class="cls-2" cx="18" cy="18" r="18"/>
  <g class="cls-3">
    <path class="cls-1" d="M28.93,11.83c-.1-.5-.32-.96-.63-1.33-.07-.08-.13-.16-.21-.23-.55-.55-1.32-.89-2.15-.89h-15.87c-.84,0-1.6.34-2.15.89-.07.07-.14.15-.21.23-.31.38-.53.83-.63,1.33-.04.19-.06.39-.06.59v11.15c0,.43.09.84.25,1.21.15.35.37.68.64.94.07.07.14.13.21.19.53.44,1.21.7,1.94.7h15.87c.74,0,1.42-.26,1.94-.7.07-.06.14-.12.21-.19.27-.27.49-.59.64-.94h0c.16-.37.25-.78.25-1.21v-11.15c0-.2-.02-.4-.06-.59ZM9.01,11.37c.27-.27.64-.44,1.05-.44h15.87c.41,0,.78.16,1.05.44.05.05.09.1.13.16l-8.32,7.25c-.23.2-.51.3-.8.3s-.57-.1-.8-.3l-8.32-7.25c.04-.05.08-.1.13-.15ZM8.58,23.57v-10.43l6.02,5.25-6.02,5.25s0-.04,0-.06ZM25.94,25.06h-15.87c-.27,0-.52-.07-.74-.2l6.35-5.53.59.52c.5.43,1.12.65,1.73.65s1.24-.22,1.73-.65l.59-.52,6.35,5.53c-.22.12-.47.2-.74.2ZM27.42,23.57s0,.05,0,.07l-6.02-5.24,6.02-5.25v10.43Z"/>
  </g>
</svg>