<?xml version="1.0" encoding="UTF-8"?>
<svg id="_レイヤー_1" data-name="レイヤー 1" xmlns="http://www.w3.org/2000/svg" width="629.41" height="216.91" viewBox="0 0 629.41 216.91">
  <defs>
    <style>
      .cls-1 {
        fill: #ebebeb;
      }
    </style>
  </defs>
  <path class="cls-1" d="M364.6,127.33c-1.29.51-2.48,1.09-4.08,1.86-.3-1.8-.53-3.15-.78-4.65-1.22,0-2.37.02-3.81.03.49,1.16.93,2.21,1.79,4.23-3.19.02-5.8.04-8.42.06-7.36.06-14.74.45-22.07.02-3.33-.2-6.34,1.41-9.88.44-3.41-.94-7.3-.15-10.98-.12-5.64.04-11.28.09-16.92.13-5.4.04-10.79.08-16.19.12-5.64.04-11.28.09-16.92.13-5.4.04-10.81-.15-16.18.19-5.44.34-10.74,1.92-16.31,1.61-5.38-.3-10.79,0-16.18.05-5.64.04-11.28.09-16.92.13-5.4.04-10.79.15-16.19.1-2.76-.03-5.45,1.44-8.25.33-2.72,2.5-6.03.97-9.05,1.25-2.92.27-5.88.1-8.82.12-3.19.02-6.38.05-9.57.07-3.19.02-6.38.05-9.57.07-3.19.02-6.38.05-9.57.07-3.19.02-6.38.05-9.57.07-2.94.02-5.89.05-8.83.07-3.19.02-6.38.05-9.57.07s-6.38-.04-9.56.11c-1.61.08-3.38.2-4.75.93-1.35.71-2.04-.04-3.11-.2-2.73-.43-5.58-.24-8.37-.1-1.1.05-2.19.96-3.26.92-19.96-.88-39.78,2.28-59.72,1.98-.96-.01-1.93.01-2.98.02,1.89-2.85,1.89-2.8,3.57-2.98,4.7-.5,9.39-1.24,14.1-1.52,4.89-.28,9.95.6,14.69-.31,13.74-2.63,27.7-.02,41.31-1.89,16.02-2.19,32.11.1,47.94-1.86,13.82-1.7,27.58-1.09,41.35-1.47,13.97-.39,27.96-.27,41.94-.39,2.06-.02,4.24.43,5.92-1.32,1.41,2.06,3.54.99,5.36,1.25,2,.29,3.56-.78,5.32-1.35,1.23-.4,3.16,1.49,4.47,1.16,12.61-3.17,25.52-.42,38.25-2.36-5.31-.06-9.38-4.67-15.04-3.75-.93.15-2.18-1.7-3.41-2.73-1.76.01-3.72.03-6.39.05-1.02,1.29-2.38,3-3.38,4.27-3.92.83-5.16-1.8-7.06-3.7,1-.37,1.85-.69,3.18-1.19-.55-1.21-1.08-2.38-1.86-4.08.51-.61,1.24-1.49,2.28-2.74,1.04,2.09,1.98,3.98,2.58,5.19,5.03-.43,9.51-2.38,14.39,1.07,2.44,1.72,6.42,1.13,9.13,2.63,2.83,1.57,5.4,1.19,8.4,1.12-.02-2.3-.03-4.44-.06-7.23-1.74.01-3.62.13-5.49.02-8.82-.52-17.63-1.1-26.56-1.66,0-1.22-.02-2.37-.03-4,6.93-.05,13.98-1.24,20.46.19,5.6,1.23,10.76.45,16.2,0-1.49-.28-2.98-.57-4.41-.84l-.02-2.53c0-.49,0-.98-.01-1.47-1.17-1.49-2.35-2.98-3.72-4.71-9.92,1.61-19.88,2.92-29.94,1.45-.59-.09-1.05-.97-2.06-1.96,1.61-.7,2.97-1.78,4.37-1.82,8.32-.22,16.65-.17,24.97-.29,3.26-.04,5.72,1.05,6.86,4.01,4.79.59,9.44,1.4,14.13,1.67,4.63.27,9.3,0,13.95-.04,1.29-2.49,3.16-4.28,6.09-4.45,6.88-.39,13.66.12,20.24,2.42,1.03.36,2.36.36,3.43.08,6.09-1.63,6.02-1.35,12.92-.13,4.02.71,8.26.22,12.4.17,3.33-.04,6.24.53,9.41,2.15,4.78,2.44,9.73,5.14,15.41,5.31.48.01.94.7,1.64,1.25.25-1.71.45-3.06.66-4.49,4.77,2.1,5.15,5.03,1.62,12.11-2.42-1.32-2.85-3.86-4-6.2-9.86.08-19.83.15-29.97.23-.17-.87-.3-1.54-.53-2.73,4.94-.04,9.71-.07,14.48-.11.04-.36.09-.73.13-1.09-1.07-.19-2.3-.11-3.18-.62-1.22-.71-2.19-1.87-3.58-3.12-4.67,3.43-10.69,2.7-16.23,4.37-.46-.49-1.09-1.15-1.86-1.97,1.05-.38,1.89-.69,2.74-1q.11-1.03-10.02-.95c-3.08-1.76-9.12-2.11-10.23-.62.45.51.89,1.01,1.89,2.16-1.53.01-2.66-.33-3.29.09-2.14,1.41-4.07,1.41-6.19.03-.52-.34-1.45.03-2.12-.17-.31-.09-.46-.74-.86-1.45.43-.62.96-1.37,1.57-2.24-.62-.52-1.36-1.13-2.55-2.13-1.81,2.47-3.72,5.05-5.58,7.65-.19.26-.16.67-.26,1.09,1.94.18,3.77.36,5.56.53,0,1.13.01,1.87.14,2.59-4.02.14-7.96-.11-11.82,1.06,3.75.51,7.51,1.02,11.47,1.56.1-.56.22-1.22.35-2.62.78-.16,2.17-.02,2.49-.54,1.72-2.83,4.41-2.64,7-2.41,2.48.22,4.9.94,7.37,1.33.63.1,1.32-.18,1.92-.28.18-2.03.34-3.84.5-5.59,1.18,0,1.91-.01,2.63-.02.02,2.21.03,4.42.05,6.7.96.44,1.94.89,4.3,1.97-8.13.06-14.88.11-21.77.17.02,2.65.04,4.79.06,7.4,2.31-.51,4.57-1,7.29-1.59-1.37,3.55-1.34,3.58-4.54,6.38-5.67-4.41-11.79-7.33-18.46-1.72-.3-.32-.61-.48-.62-.67-.06-.98-.04-1.96-.04-2.73,3.79-3.58,8.61-1.99,13.47-2.71-4.1-1.37-9.01-1.93-11.73-.55-2.17,1.1-3.96.98-6.04.33-3.36-1.05-3.37-1.01-9.38-.08.83,1.3,1.55,2.43,2.37,3.73,2.71-.02,5.34-.04,8.9-.07-.88,1.36-1.22,2.59-1.88,2.8-2.18.69-4.48,1.01-6.94,1.52-.24-.7-.54-1.55-1-2.86-5.37.41-11.28-1.41-16.28,4.56,2.24-.02,3.86-.03,5.48-.04,11.53-.09,23.21-1.38,34.55.03,14.6,1.82,29.08.18,43.59.83,1.17.05,2.34,0,3.64-1.05-1.41-.14-2.82-.31-4.23-.4-3.62-.24-4.04-.79-4.09-6.01,4.66.89,9.43-1.35,14.03,1.41,1.08.65,2.89.07,4.36.06,29.19-.22,58.38-.43,87.57-.72,2.05-.02,4.34.86,6.16-1.22.45-.51,1.92.02,2.77-.32,3.06-1.22,6.1,4.05,9.1-.02,3.68-.03,7.36-.07,11.03-.1,3.43-.03,6.87-.05,10.3-.08,3.43-.03,6.87-.05,10.3-.08,3.43-.03,6.87-.05,10.3-.08,3.68-.03,7.36-.06,11.04-.08,3.43-.03,6.87.04,10.3-.11,3.34-.14,6.18,2.13,9.72,1.54,3.35-.55,7.08.6,10.24-.34,7.62-2.27,15.32-1.2,22.98-1.41,4.42-.12,8.86.58,13.64.95-1.62-1.26-3.1-2.34-4.51-3.52-1.74-1.46-2.04-3.13-.07-5.49,2.44,4.63,8.15,3.8,11.43,7.56,1.06,1.21,3.97,1.9,6.53,1.79,7.84-.35,15.7-.3,23.54-.22,1.5.02,3,.89,4.42,2.03-20.14,1.26-40.23.82-60.3,2.47,1.59.08,3.19.07,4.76.27,2.06.25,4.11-.61,6.23,1.06,1.22.96,3.81.6,5.67.24,7-1.35,6.97-1.37,13.52-.09,1.65.32,3.42.03,5.14.01,7.78-.06,15.56-.12,23.41-.18,0,1.18.01,1.84.02,2.94-8.92.07-17.69.2-26.46.18-4.76-.01-9.5-.23-13.53,3.87-.74-1.61-1.19-2.58-1.72-3.73-5.05.04-10.18.27-15.3.03-2.52-.12-5.19,2.26-6.58,1.36-2.41-1.55-4.63-1.13-6.92-1.12-3.52,0-7.07-.56-10.48,1.4-1.82,1.05-2.81-.72-3.24-2.82-2.09.02-4.25.03-6.42.05-2.45.02-5.14.67-7.29-.12-2.18-.8-3.62,2.84-5.54.39-.52.9-1.05,1.8-1.6,2.75-.91,0-1.88.01-3.11.02-.25-.72-.54-1.56-.92-2.64-4.49.03-9.09.07-13.86.11-.97.91-2.17,2.02-3.89,3.63-.73-1.67-1.15-2.63-1.69-3.87-4.98.43-10.4-1.23-14.78,2.99-.26.25-.99.24-1.4.09-4.77-1.81-9.52-2.37-14.24.13-2.41-2.68-5.97-.53-8.7-2.07-.96-.54-2.42-1.05-3.31-.7-7.76,3.07-15.83.69-23.7,1.57-5.42-2.49-11.29-.84-17.03-1.57.15-.23,2.46-3.8,2.85-4.41-3.75,1.27-7.54,1.2-8.75,6.15,2.31-.02,4.69.05,7.05-.07,6.48-.33,12.71,2.05,19.29,1.59,1.92-.13,4.35,1.14,6.74,1.25,2.03.09,4,.98,6.03,1.32,2.84.48,4.51,1.12,7.51,3.22-1.04,7.2-7.87,7.42-12.54,9.93-2.93,1.57-7.13.74-10.05,2.32-3.08,1.66-6.77-.55-9.43,2.33-.57.62-2.36.11-3.58.12-4.95.01-9.68,1.2-14.34,2.75-.66.22-1.38.24-2.08.32-5.19.54-10.53.49-15.52,1.78-4.01,1.04-8.39.2-11.81,1.67-3.92,1.68-7.86,0-11.19,1.46-3.3,1.44-7.03.15-9.6,1.66-3.18,1.87-6.18.49-9.1,1.27-6.36,1.71-13.01,1.81-19.31,3.32-3.8.91-7.62.5-11.17,1.47-3.5.96-7.13.66-10.4,1.6-3.53,1.01-7.2.48-10.41,1.55-3.54,1.17-7.07.71-10.46,1.45-6.42,1.4-12.84,2.42-19.35,3.26-2.94.38-6.2.45-8.91,1.46-3.05,1.14-6.33.43-8.93,1.56-3.32,1.45-6.73.45-9.71,1.51-3.28,1.16-6.46,1.13-9.74,1.43-2.52.23-4.97,1.1-7.48,1.43-2.31.31-4.81-.44-6.77,1.53-.25.25-.95,0-1.44.05-6.42.53-12.97.45-19.21,1.8-5.72,1.23-11.55.47-17.02,1.68-4.77,1.05-9.62.35-14.1,1.51-5.96,1.55-12.05.39-17.78,1.64-5.74,1.25-11.55.38-17.05,1.57-7.19,1.56-14.51.26-21.46,1.64-13.3,2.64-26.62.67-39.89,1.56-.18.01-.37-.26-1.17-.86,4.45-.51,8.02-2.17,12.18-2.26,8.14-.18,16.45-.16,24.34-1.84,5.3-1.12,10.42-1.03,15.63-1.24,3.8-.16,7.17-2.17,11.17-1.76,3.43.36,7.21,1.06,10.43-1.38.31-.24.96-.08,1.45-.04,10.43,1.05,20.62-2.1,31.03-1.81,2.97.08,5.96-.97,8.94-1.44,2.75-.43,5.79.89,8.26-1.5.38-.37,1.43-.02,2.16-.08,6.42-.53,13.18,0,19.14-1.93,5.29-1.72,10.97.53,15.83-2.68.69-.45,1.92-.05,2.9-.09,3.05-.13,6.02.23,9.02-1.39,2.35-1.26,5.78,1.07,8.19-1.63.33-.37,1.42-.04,2.15-.07,5.86-.24,11.5-1.53,17.19-2.95,4.55-1.13,9.48-.72,14.04-1.83,4.49-1.09,9.35-.35,13.53-2.87.54-.33,1.45-.05,2.18-.06,3.06-.07,6-.05,9.02-1.38,2.43-1.08,5.36-.39,8.24-1.41,3.6-1.28,7.92-1.26,11.81-1.51,5.26-.34,10.38-1.46,15.51-2.2,3.97-.57,8.12-.46,11.87-1.5,4.02-1.12,7.96-1.01,11.94-1.44,2.49-.27,4.75-1.68,7.49-1.56,2.25.1,4.52.59,7-.86,2.03-1.19,5.42.17,7.78-.73,6.34-2.41,13.22-2.02,19.56-4.33,1.95-.71,4.4.05,6.58-.21,2.03-.25,4-.98,6.01-1.46,9.82-2.31,20.15-2.57,29.33-7.48.94-.51,2.3-.25,3.51-.73-5.42-1.46-10.66-3.14-16.29-3.97-5-.74-10.11-.19-14.84-1.31-5.77-1.38-11.43-1.27-17.11-.94-2.34.14-4.62-3.93-6.89-.12-2.29-.28-4.23-1.82-6.77-1.49-2.66.35-5.39.11-8.09.13-2.45.02-4.91.05-7.36.05-.81,0-8.57-2.39-9.3-2.81,2.38-.09,4.84-.26,7.3-.42-.08-1.07-.12-1.53-.16-2.05-2.29-.51-4.58-1.02-7.07-1.57,0,1.21.02,2.59-.08,4.03ZM546.2,121.71c1.84,1.27,2.83,2.54,3.87,2.58,4.79.18,9.59.02,14.49-.01,0-1.15-.01-1.81-.02-2.7-5.83.04-11.54.09-18.34.14ZM277.53,117.5c.17-3.77-.69-7,1.44-10.34-1.95.26-3.22.43-5.05.68.86,1.55,1.38,2.49,2.05,3.7-1.42.79-2.98,1.37-4.14,2.4-.86.75-1.2,2.09-2.01,3.63,2.98-.02,5.11-.04,7.71-.06ZM396.25,127.3c4.75-.96,8.47.87,12.13.45,0-1.29-.02-2.43-.03-3.57q-8.56-.19-12.11,3.12ZM545.39,121.47c-3.67.03-7.26,0-10.85.1-3.65.1-7.35-.29-10.93.78,7.18,1.67,14.57-.71,21.8,1.62,0-.68-.01-1.34-.02-2.5ZM393.91,124.33q-7.7-.23-9.86,2.86c3.41-.32,6.71.3,9.88-.5,0-.9-.01-1.38-.02-2.36ZM287.91,107c2.88-.02,5.64-.04,8.68-.07-2.23-4.28-5.67-2.06-8.7-2.77,0,1.28.01,1.94.02,2.84ZM518.8,122.9c0-.41,0-.82-.01-1.23-2.62.02-5.25-.05-7.87.09-2.62.14-5.36-.48-7.79,1.26,5.23-.04,10.45-.08,15.68-.12ZM382,124.91q-4.52-.71-6.83,2.22c2.67.04,5.36.73,6.83-2.22ZM477.64,122.98c-.04-.33-.09-.66-.13-.99-1.87.01-3.76-.17-5.59.09-2.21.31-1.85,1.57-1.18,2.33,2.56-.53,4.73-.99,6.9-1.44ZM501.08,123.03c-2.27-1.01-4.63-1.63-6.85.05,2.28-.02,4.57-.03,6.85-.05ZM444.54,125.06c-3.48-3.05-3.54-3.12-4.95-1.98-.27.22.14,1.25.24,2.01,1.32-.01,2.45-.02,4.71-.04ZM485.41,123.66c.05.43.09.87.14,1.3,1.28-.2,2.57-.39,3.85-.59-.03-.25-.06-.5-.08-.75-1.3,0-2.61.02-3.91.03Z"/>
  <path class="cls-1" d="M220.97,204.06c5.96-2.67,12.04-3.3,18.28-3.18,2.97.06,5.95-.99,8.95-1.43,3-.44,5.91-.03,9.05-1.29,3.29-1.32,7.55.27,11.05-1.83,6.55,1.08,12.74-1.9,19.25-1.72,2.72.07,5.47-.94,8.21-1.43,2.74-.49,5.87,1.1,8.21-1.54,4.58.52,9.03-.4,13.35-1.64,7.14-2.05,14.73-1.42,21.79-4.31,3.08-1.26,6.87-.77,10.39-1.51,4.97-1.05,9.97-1.92,14.94-3.16,3.58-.89,7.39-.56,11.17-1.49,5.72-1.39,11.8-1.26,17.72-1.86,1.36-.14,2.67-.7,4.03-.92,1.79-.29,3.61-.44,5.53-.66,0,1.24.01,1.9.02,2.61-5.37.85-10.55,2.3-15.7,3.13-4.13.66-8.4,1.39-12.54,2.11-4.5.77-9.32.35-13.56,2.77-.93.53-2.41.12-3.64.1-4.74-.08-9.13,1.53-13.63,2.67-3.37.85-6.82,1.42-10.27,1.9-2.31.32-4.54.03-6.82,1.41-1.83,1.11-4.77-.74-6.74,1.55-.32.38-1.41.01-2.12.16-2.73.57-5.53-.84-8.36,1.33-1.76,1.35-5.25-.81-7.33,1.71-4.39-.96-8.39,2.04-12.61,1.47-4-.55-7.36,1.61-11.17,1.71-3.5.1-6.91.13-10.51,1.2-4.29,1.28-9.25.17-13.89.45-4.96.3-9.88,1.19-14.84,1.48-4.89.28-9.81.13-14.72.17-1.16,0-2.33.02-3.49.03Z"/>
  <path class="cls-1" d="M94.9,117.86c-3.14,1.92-5.1,3.11-7.07,4.31-1.46-1.74-2.84-3.39-3.34-3.99-6.34-1.33-10.52,2.3-15.65,1.82-.01.03-.29.87-.97,2.95-.5-2.06-.85-3.48-1.19-4.9-.51.4-1.02.81-1.53,1.21-3.4.03-6.79.14-10.19.04-1.97-.05-3.56.66-5.33,1.38-1.35.54-2.61,3.11-4.97.91-.74-.69-3.21.51-4.9.8-1.75.3-3.22-1.06-4.57-1.2-2.18-.22-3.38-1.32-5-2.35-5.71-3.61-11.44-3.07-17.39,1.02-.1-1.38-.19-2.52-.27-3.65,7.71-4.09,13.77-3.54,19.93,1.81,2.44-.02,4.89-.04,7.85-.06,2.83-5.44,6.18-10.94,8.55-16.83,1.1-2.74.17-6.25.42-9.39.06-.75,1.13-1.42,2.02-2.45,3.66,11.96-3.19,20.52-8.16,29.92,4.48-1.6,8.16-3.31,12.03-4.17,2.93-.65,5.72,2.31,8.94,1.28,3.32,2.99,6.47-1.17,9.74-.24,3.81-2.73,7.58-1.37,11.66.25.32-4.01,4-4.85,6.49-6.58,2.77-1.93,6.03-1.34,9.42-.05,2.53.96,5.74.15,8.59.32,2.85.22,1.65,4.43,4.75,4.53,2.02.06,4.09.69,6.01,1.39,2.85,1.05,5.6,2.51,8.36-.11,6.15.76,12.5-1.74,18.57,1.25,1.18.58,2.93-.12,4.37.1,2.02.31,3.46,1.37,3.27,4.33-2.98-.42-6.15,1.46-8.59-1.89-.36-.49-1.18-.91-1.79-.92-4.66-.04-9.32-.1-13.97.13-1.78.09-3.7,1.66-5.22,1.26-1.76-.46-3.51-.94-5.3-1.38-3.16-.78-5.78-1.84-9.23-.01-2.27,1.2-5.66.27-8.69.29,0-1.09-.01-1.76-.02-2.94,2.37-.02,4.68-.04,7.06-.05,0-1.18-.01-1.85-.02-2.73-6.2.05-12.27.09-18.31.14-1.13,1.15-2.32,2.36-3.65,3.71.71.18,1.79.67,1.96.45,1.41-1.82,2.68-.25,5.35.31Z"/>
  <path class="cls-1" d="M326.39,52.33c6.01-.05,10.53,1.27,13.07,7.12-1.35.01-2.34.32-2.99-.03-3.88-2.08-7.5-4.5-12.33-4.11-1.85.15-3.87-1.15-5.74-1.94-7.33-3.11-16.76-4.6-23.46-3.56-.64.1-1.24.55-1.84.87-5.32,2.79-11.11,1.99-16.77,2.21-2.91.11-3.3-2.14-4.08-4.02-4.42-.67-8.81-1.34-12.96-1.98-2.76,1.85-4.85,3.72-4.36,7.34-3.73.03-7.34.06-11.32.09-.21,2.05-.39,3.88-.58,5.81-.4-.08-.9-.04-1.06-.24-1.23-1.68-2.4-3.42-3.58-5.13-1.05.59-1.97,1.12-2.98,1.69-2.66-3.1.36-3,2.06-4.02-1.42-1-2.75-1.93-5.42-3.82-3.8.41-9.37,1-15.2,1.63,6.77-4.62,16.78-6,22.03-2.92,1.47.86,2.48,2.49,4.35,4.43.89-.34,2.48-1.25,4.18-1.55,1.85-.33,3.81-.1,5.81-.12.15-1.52.27-2.68.28-2.78,3.94-5.41,9-4.9,14.2-4.57.18.59.38,1.24.76,2.5.99.08,2.33.14,3.65.31,1.14.15,2.4.18,3.37.7,8.09,4.37,8.07,4.4,16.04,1.54.63-.23,1.2-.9,1.81-.91,8.14-.14,16.44-.96,24.28,1.56,4.5,1.45,7.68,1.57,11.74-1.52,2.6-1.98,6.43-3.7,10.28-3.32,1.31.13,2.55.91,4.12,1.5,1.25-1.6,2.58-3.31,3.4-4.36,2.75-.02,4.4-.03,6.17-.05,0,.87.29,1.89-.03,2.14-3.5,2.7-6.68,5.77-11.84,5.23-3.94-.41-8.15-.79-11.85,1.47-.94.58-1.7,1.45-3.24,2.78Z"/>
  <path class="cls-1" d="M501.8,146.18c-4.33-3.69-9.39-5.29-14.48-6.53-7.78-1.9-15.64-3.57-23.78-2.92-.66.05-1.42-1.11-3.04-2.47,17.43-1.34,33.12-.82,46.93,9.86.01,1.32.02,2.5.03,3.68,0,.95.01,1.91.02,2.71-3.93,3.87-8.88,5.51-13.69,6.52-8.86,1.86-17.55,4.9-26.77,4.78-4.78,2.88-10.36.39-15.27,2.24-4.96,1.87-10.09.3-15.08.98-1.55.21-3.02.96-4.99,1.61-.61-.66-1.37-1.49-2.83-3.09,6.3.65,11.27-2.37,16.9-1.7,2.15.26,4.45-1.04,6.72-1.35,2.08-.28,4.11-.91,6.04-1.27,3.41-.65,6.94-.76,10.37-1.78,2.65-.79,5.45-1.1,8.18-1.59,2.97-.53,6.69-.12,8.74-1.78,2.52-2.04,6.04.25,7.77-2.77,4.17.57,6.82-1.19,8.24-5.13Z"/>
  <path class="cls-1" d="M359.45,47.85c-.97-.94-2.62-1.72-2.82-2.79-.81-4.14-1.09-8.38-1.74-12.56-.16-1.07-1.32-2.03-1.32-3.05,0-1.02,1.34-2.11,1.23-3.07-.31-2.64,4.4-1.97,3.09-5.33-1.01-2.58,1.85-3.63,3.18-5.22,1.84-2.2,1.56-15.82,1.56-15.82l2.06-.02s.16,11.11.99,16.59l3.53-.03c.34,2.5,1.22,4.74-.92,6.76,1.04.83,2.1,1.67,3.48,2.76-1.63.78-2.63,1.26-3.68,1.76,1.48.83,2.87,1.62,4.15,2.34.52,7.62-.37,15.47-2.04,17.52-.16.19-.88-.09-1.6-.19-.2-1.28-.4-2.64-.86-5.58-1.36,3.04-2.12,4.73-3.15,7.03,3.31.42,6.08-.17,8.16,1.69-.21,1.12.75,2.81-1.45,2.96-.17-.41-.29-1.14-.52-1.18-4.25-.7-8.52-1.33-12.81-1.97.63-1.1,1.06-1.87,1.48-2.61.92-.05,1.81-.13,2.66-.21-.01-1.6-.02-2.87-.03-4.23-4.25-.16-1.93,2.92-2.62,4.44ZM364.55,22.64c.78-.81,1.44-1.48,2.9-3-2.66.2-3.95.3-5.88.45,1.29,1.1,1.99,1.7,2.97,2.54ZM357.95,31.5c.78,1.71,1.43,3.13,2.08,4.54.18-1.71,2.54-4.2-2.08-4.54ZM367.52,34.45c.17-.17.47-.33.47-.5.02-.64.19-1.5-.15-1.87-.36-.4-1.23-.35-1.87-.5.18.67.28,1.37.57,1.98.17.37.64.6.98.9ZM367.56,38.87c.17-.17.47-.33.47-.5.02-.64.19-1.5-.15-1.87-.36-.4-1.23-.35-1.87-.5.18.67.28,1.37.57,1.98.17.37.64.6.98.9Z"/>
  <path class="cls-1" d="M90.34,83c-1.62-1.59-2.49-2.45-3.73-3.68-6.25.29-12.97-.78-19.33,1.99-.57.25-.65,1.62-.96,2.47-2.08-.45-4.38-1.68-5.96-1.07-1.68.64-3.66,2.25-3.96,4.78-.04.38-1.69.57-3.57,1.15,1.99-4.46,4.7-6.37,7.76-8.33,1.99-1.27,3.08,2.78,4.79.01.77-1.24,2.55-1.93,3.97-2.66,1.6-.83,3.29-1.54,5.01-2.1.75-.25,1.75-.24,2.48.04,5.18,1.95,9.81,1.2,13.47-3.01,3.98-4.59,9.02-7.23,14.7-8.94.43-.13.79-.57,1.21-.62,4.69-.56,9.4-1.07,14.09-1.61,1.16-.13,2.89.09,3.38-.58,2.55-3.43,6.12-2.18,8.5-2.39,12.13-6.63,23.83-8.51,36.11-3.38,1.84-1.94,3.45-4.25,5.63-5.73,1.82-1.23,4.3-1.48,6.25-2.09,1.64,1.65,2.85,2.86,4.17,4.18-.7.6-1.42,1.23-2.48,2.13-.6-1.08-1.31-2.34-2.1-3.76-1.77,1.13-2.7,1.76-3.66,2.34-.98.59-2.11.97-2.96,1.7-5.61,4.79-6.59,5.44-13,2.65-3.23-1.41-5.68-1.82-8.58-.09-.38.23-.91.41-1.32.34-4.86-.84-9.3,1.49-14.04,1.88.31,1.18,1.2,2.6.83,3.49-.82,1.99-2.76,2.54-4.97,2.1-.46-.94-.94-1.94-1.42-2.91-4.67,1.01-8.48,3.14-11.22,7.2-1.82.01-3.64.03-5.85.04.71-.86,1.13-1.37,1.83-2.22-2.92-.77-6.01-1.12-8.4-.06-5.82,2.6-12.35,4.11-16.71,9.36.02,2.21.03,4.41.06,7.36Z"/>
  <path class="cls-1" d="M176.17,114.12c-.5-.74-.79-1.35-1.12-2.04,2.09-2.57,2.1-2.7,3.68-2.5,1.45.18,3.47,1.37,4.19.79,1.85-1.47,3.73-.79,5.52-.8,1.5,0,2.98.96,4.51,1.3.92.2,1.93.02,2.87.02,1.9-1.92,3.77-3.83,5.84-5.93,3.65-.03,7.52.1,11.36-.13,4.05-.25,7.61,1.66,11.47,2.2.04,0,0,.46,0,.7-3.5.84-7,2.95-10.53.08-3.49,2.74-7.01,1.61-10.38.03-1.6,2.11-3.12,4.14-4.53,6-4.27.03-8.18.06-12.75.1.37,1.34.68,2.5,1.05,3.83-3.04,2.55-7.4,3.24-10.37.68-1.76-1.51-3.8-2.13-5.24-1.35-4.14,2.25-8.47.91-12.6,1.51-.77-.76-1.47-1.44-2.17-2.13,2.31-4.21,6.53-1.46,9.89-2.74.1-.55.21-1.22.35-2.03-4.17-2.13-7.69,1.48-11.72,1.15-3.8-.31-7.73.9-11.84,1.48,1.52-4.85,5.58-4.28,8.71-5.29,5.38-1.75,10.71-1.02,15.96.63.68.21,1.43.95,1.68,1.62,1.11,2.97,3.53,2.78,6.17,2.82,2.52,1.52,5.83,1.89,7.12.59-.05-.56-.11-1.21-.15-1.64-2.45.43-4.79.83-6.97,1.05Z"/>
  <path class="cls-1" d="M181.65,165.48c-3.7,3.3-6.94,4.34-10.71,4.56-4.7.27-9.36,1.19-14.06,1.46-4.88.28-10.02-.81-14.62.38-7.66,1.98-15.29,1.1-22.92,1.38-7.82.29-15.65.18-23.48.21-.64,0-1.28-.34-3.44-.94,7.09-.81,12.67-2.01,18.25-1.97,9.89.08,19.56-2.84,29.47-1.82,6.71-2.75,13.78-1.03,20.66-1.67,2.75-.26,5.44-1.18,8.19-1.44,2.91-.27,5.87-.1,8.8-.12.91,0,1.82-.01,3.86-.03Z"/>
  <path class="cls-1" d="M43.64,184.57c6.88-.56,12.83-2.85,19.11-1.99,4.97-2.66,10.37-1.39,15.57-1.53,7.92-.21,15.66-2.75,23.66-1.72,5.98-2.71,12.34-1.12,18.51-1.63.92-.08,2.12-.03,2.68-.57,2.17-2.12,1.87,1.57,3.31,1.23-6.12,1.61-12.11,3.06-18.29,4.09-6.94,1.16-14.04.25-20.69,1.69-7.25,1.57-14.36.98-21.52,1.29-7.09.31-14.2.12-21.3.12-.17,0-.35-.32-1.03-.99Z"/>
  <path class="cls-1" d="M449.46,72.16c5.18-2.66,10.62-1.7,15.97-.93,1.04.15,1.71.84,3.08.29,2.11-.84,4.51-.95,6.42-1.3,1.3,1.28,2.16,2.13,3.03,2.99q13.75-2.69,16.13,1.35c6.65-3.7,13.9-2.98,21.09-2.62.19,0,.35.78.53,1.19-2.03,1.97-4.83,1.28-7.21,2.06-3.87,1.27-7.87,2.15-11.65,4.46-4.13-2.92-7.31-8.06-13.43-5.76.6,1,1.15,1.93,2.12,3.55-2.96.18-5.25.32-7.28.45-1.15-1.13-2.02-1.99-2.89-2.84-3.2-.54-6.7.88-9.64-1.5-.19-.15-.94.14-1.23.43-3.73,3.72-7.46,1.82-11.04-.14-1.31-.72-3.66,1.14-4.01-1.67Z"/>
  <path class="cls-1" d="M377.88,201.85c.08.28.26.94.63,2.24-8.75,1.64-17.39,3.04-25.92,4.91-8.4,1.85-16.95,3.08-25.4,4.21-8.79,1.17-17.62,2.55-27.79,3.7,2.93-3.12,5.29-4.17,8.32-4.77,7.71-1.53,15.67-1.81,23.16-4.47.65-.23,1.46-.02,2.19-.05,3.53-.13,6.95-.05,10.47-1.37,2.94-1.1,6.67.63,9.6-1.73,5.35,1.1,10.24-1.95,15.56-1.68,2.94.15,5.93-.61,9.16-.99Z"/>
  <path class="cls-1" d="M224.49,107.74h1.47c1.24,2.64,1.32,3.33.86,7.78-3.79-2.86-7.42-2.19-11.29.46,4.01.76,7.74,1.47,11.72,2.22.01,1.37.02,2.7.04,4.95-2.08-1.39-3.56-2.37-5.44-3.62-4.12.65-8.98-1.03-13.6,1.43-.98.52-2.93-1.12-4.48-1.23-2.93-.2-5.89.16-8.82-.05-2.42-.17-4.95-.6-6.09-3.81,8.12-2.1,15.82,2.76,24.18.16-2.97-1.9-7.13.85-8.88-2.97.82-1.83,2.38-2.33,4.47-2.3,5.12.08,10.24-.04,15.88-.08,0-1.12-.02-2.03-.02-2.94Z"/>
  <path class="cls-1" d="M123.37,70.23c1.67-1.69,2.87-2.91,4.23-4.29,4.7-.04,9.55-.07,15.77-.12.47-.68,1.12-2.57,2.44-3.39,4.18-2.62,8.18-6.07,13.87-2.89,2.49,1.39,5.69,1.49,8.5,2.15,0,.66,0,1.14.01,1.61-.41.25-.83.72-1.19.68-3.48-.4-6.95-.94-10.43-1.34-4.48-.52-8.16.64-10.28,5.05-.51,1.07-1.4,1.96-2.14,2.96-4.48-3.18-8.92-1.59-13.14-1.94-5.58,4.51-13.5,5.48-17.32,11.61-1.11-.78-2.07-1.46-2.98-2.1,5.17-7.14,6-7.65,12.66-7.99Z"/>
  <path class="cls-1" d="M343.27,60.93c-1.55-2.32-2.93-4.38-4.3-6.43,3.37-2.15,5.78.88,9.22,1.04-.66,1.45-1.1,2.44-1.72,3.79,2.86.73,5.94.35,8.94.24,3.27-.13,4.28,3.47,7.06,3.56,0,1.28.02,2.24.02,3.13q-.66.67-5.3-3.89c-2.77.28-6.04.76-9.32.89-4.87.2-9.02,3.47-14.71,1.26-6.47-2.52-11.1.5-15.17,6.82-.18.28-.85.25-1.3.36-1.93-4.76-1.59-4.89,1.39-7.44,4.78-4.09,10.35-2.7,15.7-2.99,2.31,2.9,4.55.91,6.87-.02.81-.32,1.78-.23,2.61-.31Z"/>
  <path class="cls-1" d="M239.06,69.92c-1.41,1.43-2.61,2.65-4.08,4.15-.88-.51-1.86-1.07-2.91-1.67-2.77,1.1-5.65,2.24-8.54,3.39-.24-.39-.49-.78-.73-1.18,2.09-1.68,4.17-3.35,6.74-5.41-5.14-2.55-9.47-4.69-14.51-4.05-4.68.6-9.66-1.49-14.06,1.55-3.09-1.4-2.82,2.26-5.08,3.25-.92-1.57-1.88-3.21-3.19-5.46,2.41-.81,4.43-1.73,6.55-2.13,2.27-.43,4.74.45,6.78-1.51.51-.49,1.92-.24,2.86-.06,2.02.37,3.99,1.12,6.02,1.34,2.18.23,4.54-.47,6.56.13,2.57.75,5.09,2.11,7.22,3.74,2.36,1.81,4.34,3.7,7.6,2.02.38-.2,1.48.99,2.77,1.92Z"/>
  <path class="cls-1" d="M514.04,96.68c-2.71.59-4.23,1.45-5.09,1.02-2.61-1.32-4.59-1.27-7.15.43-2.54,1.69-5.73,2.42-9.11,3.76,1.41-5.03,5.65-6.05,8.61-8.86-1.38-1.06-2.71-2.08-4.38-3.36-3.29-.48-7.36-1.93-11.12-1.36-3.69.56-7.21,1.66-10.95,1.04-1.14-3.75,3-2.34,3.65-4.18,8.22.01,16.67-1.26,23.78,4.61,1.23,1.01,2.82,2.54,4.07,2.38,3.41-.42,4.61,2.22,7.7,4.51Z"/>
  <path class="cls-1" d="M144.56,85.83c5.7-4.93,6.33-5.06,10.87-1.65-2.67,1.55-5.15,2.99-7.88,4.57.61,1.19,1.22,2.39,2.1,4.12-.97.52-2.03,1.09-3.1,1.66-.19-.19-.89-.87-1.52-1.5.55-.99,1.09-1.95,1.64-2.95-2.76-1.36-5.2-2.57-7.64-3.77-2.29,1.98-6.25.88-7.8,4.16-1.44,3.07-4.19,5.59-3.96,9.37.16,2.59-1.14,3.93-3.84,4.47-1.49-5.6-.63-10.35,3.76-14.22.91-.81,1.73-1.72,2.58-2.61,3.08-3.2,6.32-5.51,10.93-2.68.91.56,2.14.6,3.86,1.04Z"/>
  <path class="cls-1" d="M420.52,84.55c3.77-4.8,6.56,1.39,10.91-1.22-1.19,3.26-1.8,4.94-2.24,6.16-3.77-1.14-6.96-2.11-10.43-3.16-6.77-11.57-17.69-15.57-31.71-4.61-1.37-2.13-1.35-4.19.73-5.42,3.11-1.83,6.5-3.32,10.15-3.73,9.79-1.12,17.61,1.93,22.59,11.97Z"/>
  <path class="cls-1" d="M197.28,85.67c2.6-2.64,4.66-4.74,6.85-6.96,4.25-.6,8.63-1.44,13.05-1.77,4.39-.33,8.81-.13,13.99-.17,1.96,2.43,4.22,5.23,7.33,9.1-2.63-.45-4.08-.37-5.19-.95-1.84-.96-3.75-2.07-5.1-3.59-1.8-2.02-4.57-2.31-5.87-1.35-2.32,1.71-4.57,1.14-6.87,1.29-2.17.14-3.87.87-5.87,1.89-3.49,1.77-7.57,3.16-12.34,2.51Z"/>
  <path class="cls-1" d="M423.09,109.16c0,1.18.01,1.85.02,2.39-9.55,2.77-19.2,2.05-28.78,2.28-1.83.04-3.56-.25-5.48,1.06-2.36,1.61-4.31-.21-5.98-3.03,2.19-.92,3.97-2.29,5.79-2.34,11.45-.29,22.92-.28,34.43-.36Z"/>
  <path class="cls-1" d="M318.65,77.5c2.71.63,5.61-1.32,8,1.49,4.78-.39,9.24.45,13.54,2.76,2,1.08,4.2-.5,4.66-2.29.78-3.02,2.51-3.65,5.17-3.64.84,0,1.73-.52,2.52-.95,2.38-1.29,4.09-.35,5.77,1.84-1.15.7-2.39,2.1-3.38,1.94-3.32-.55-4.96,1.61-6.64,3.59-2.58,3.04-2.46,2.99-6.45,2.56-6.73-.73-13.16-3.41-20.11-2.92-1.93.14-3.45-1.33-3.09-4.37Z"/>
  <path class="cls-1" d="M273.13,85.6c-.69.79-1.3,1.49-1.97,2.26-.33-.06-.83,0-.99-.2-1.26-1.65-2.74-3.23-3.64-5.07-3.46-7.08-9.62-9.6-16.88-10.37-.93-.1-1.89,0-3.74.01.7-1.34.97-2.68,1.57-2.85,1.48-.42,3.65.48,3.28-2.41,3.88-4.87,8.19-4.9,15.25.39-3.87.03-7.12.05-11.42.09.84,1.61,1.08,2.93,1.71,3.14,3.83,1.33,8.35,3.85,9.99,5.98,2.15,2.78,4.26,5.6,6.85,9.01Z"/>
  <path class="cls-1" d="M360.51,97.34c-2.2-1.56-3.31-2.34-4.53-3.21,4.57-5.74,8.83-10.54,14.77-12.25,5.71-1.65,11.82-.07,18.1,1.52,1.32,1.78.49,3.83-1.55,4.96-1.33.74-3.31.66-4.92.41-1.27-.19-2.41-1.2-3.68-1.88.77-.78,1.31-1.28,1.79-1.83.42-.49.75-1.04,1.12-1.56-.66-.17-1.66-.7-1.94-.45-2.6,2.32-6.31,1.22-9.05,3.11-3.27,2.25-6.9,4.07-8.19,8.3-.27.89-1.05,1.62-1.92,2.88Z"/>
  <path class="cls-1" d="M450.8,84.09c7.83-.72,14.47.66,19.44,6.46,1.79,2.08,5.54,1.89,6.14,5.96-6.46.41-12.24,2.55-18.21,6.87,1.72-6.25,6.52-7.72,10.53-9.98-3.14-4.1-7.31-5.73-12.4-5.1-2.68.33-4.71-.32-5.5-4.21Z"/>
  <path class="cls-1" d="M515.82,88.5c-.02-3.85,1.28-5.09,3.89-5.1,3.43-.02,6.86-.07,10.29-.07,7,0,12.02,4.16,13.86,11.44.11.44.24.88.3,1.09,4.41.75,8.74,1.48,13.29,2.24-2.55,3.72-5.75,3.09-8.76,2.32-5.14-1.31-5.22-1.37-7.75-6.74-2.38-5.06-6.32-7.47-11.76-7.37-4.24.08-8.64-.87-13.35,2.2Z"/>
  <path class="cls-1" d="M515.71,73.19c6.71-.75,12.9,1.44,19.13,3.42,1.09.35,2.26.81,3.36.72,7.59-.63,13.52,3.22,15.93,10.44.21.63.9,1.1,1.15,1.73.24.59.18,1.3.33,2.61-1.17-.28-2.36-.21-2.69-.71-1.23-1.9-2.59-3.88-3.15-6.02-1.06-4.05-4.21-4.75-7.44-5-2.83-.22-5.69-.04-8.21-1.52-3.08-1.8-6.43-1.52-9.71-1.33-3.18.19-6.03-.49-8.67-2.13,0-.8-.01-1.53-.02-2.21Z"/>
  <path class="cls-1" d="M431.59,85.47c.61-.81,1.03-1.37,1.79-2.38-2.09-.66-4.05-1.56-6.1-1.86-2.14-.31-4.37-.04-6.71-.02-.21-.7-.41-1.35-.74-2.42,3.15-1.01,6.3-.71,9.29-.45,1.65.14,3.44,1.41,4.71,2.64,3.07,2.98,8.14,3.48,10.26,8.15-1.15.4-1.99.7-3.34,1.17,1.04,1.22,1.95,2.3,3.15,3.71-1.49.01-2.64.02-3.69.03-2.67-2.65-5.43-5.39-8.62-8.56Z"/>
  <path class="cls-1" d="M375.41,99.3c-.87-.85-1.57-1.54-2.73-2.69,1.69-.67,3.15-1.77,4.58-1.72,3.99.12,7.9-.66,12.01,1.04,2.92,1.21,6.77.19,10.2.16,2.89-.02,5.78-.04,8.67-.07-10.71,4.61-21.92,2.46-32.73,3.28Z"/>
  <path class="cls-1" d="M281.7,71.97c-.39-4.66,3.77-3.83,5.08-5.93,2.88,1.23,4.84-2.94,8.58-.74,3.26,1.92,7.67,2.35,9.67,5.98.92,1.67,3.16,3.85.9,6.44-.74-.9-1.57-1.72-2.17-2.67-3.87-6.16-5.94-6.9-13.02-4.64-1.94.62-3.94,1.09-5.94,1.51-.89.18-1.84.04-3.09.05Z"/>
  <path class="cls-1" d="M193.47,51.84c1.09.81,1.82,1.36,2.42,1.81.73-.37,1.42-.49,1.5-.79,1.04-3.66,3.25-5.89,7.19-5.23,1.48.25,2.77,1.64,4.17,2.53,1.29-.75,2.83-1.65,4.97-2.89.01,1.44.4,2.77-.06,3.67-.75,1.43-1.92,3.09-3.94,2.39-2.13-.73-4.11-1.87-6.2-2.84-3.09.58-2.98,3.13-3.3,6-1.54-.23-3.04-.45-6.17-.92-1.16.15-3.33,3.85-6.94,1.65.69-3.95,4.29-3.84,6.35-5.38Z"/>
  <path class="cls-1" d="M449.74,71.99c-1.7.85-3.11,1.55-4.55,2.28,1.67,1.29,4.56,1.41,4.33,4.51-5.32-1.17-9.3-.93-14.33,1.05-.17-1.43-.33-2.73-.45-3.74,1.65-1.02,3.01-1.86,4.37-2.69-.66-1.14-1.19-2.07-1.69-2.95.59-.55.92-1.11,1.25-1.11,3.84,0,7.91-.8,11.08,2.66Z"/>
  <path class="cls-1" d="M434.69,68.66c0,.98.01,1.94.03,3.3-1.33.01-3.04.55-3.89-.07-2.13-1.56-4.84-3.32-5.58-5.58-1.51-4.58-5.61-4.07-8.64-5.64-.74-.38-1.74-.26-2.77-.4,2.52-4.77,2.76-5.01,6.15-3.17,2.22,1.2,4.6,2.63,6.05,4.59,2.34,3.17,5.43,5.1,8.66,6.96Z"/>
  <path class="cls-1" d="M387.54,60.85c.58,1.19,1.17,2.38,1.76,3.59-3.45,2.32-5-.31-6.86-2.04-.51.47-1.01.95-1.52,1.42-7.23-7.08-9.73-7.47-17.97-2.49-.2-1.51-.38-2.79-.56-4.16,3.08-1.24,5.99-2.4,8.9-3.57.17.41.34,1.19.52,1.19,4.69.06,7.66,3.05,10.55,6.09,1.78-.01,3.48-.03,5.18-.04Z"/>
  <path class="cls-1" d="M332.27,115.7c-.01-1.84-.03-3.73-.04-5.71q2.95,1.25,10.66-1.67c1.07,2.21,2.16,4.44,3.44,7.07-.74.45-1.97,1.21-3.74,2.29-.01-1.95-.02-3.1-.04-4.63-2.37-.39-4.43-.79-7.82,1.54,2.72.68,3.91.98,5.42,1.36.55.97,1.28,2.27,2.17,3.85-2.44.02-4.74.04-7.1.05-.15-1.34-.28-2.49-.45-3.96-.91-.07-1.82-.15-2.49-.2Z"/>
  <path class="cls-1" d="M103.74,77.98c-.71,4.46-4.66,4.24-6.96,6.05-2.6,2.06-4.68,4.77-7.01,7.23-2.94-3.77-3.01-4.2-.95-6.71,3.79-4.61,8.32-7.49,14.92-6.56Z"/>
  <path class="cls-1" d="M576.31,103.57c-.93-.97-1.71-2.17-2.81-2.88-2.28-1.45-4.73-2.64-7.21-4-.2.16-.69.57-1.8,1.49-.01-1.54-.02-2.45-.03-3.36,2.23-1.51,4.02-1.63,6.84-.27,4.34,2.08,7.93,4.34,10.01,8.79,1.3,2.78,1.45,2.73-1.42,6.27-1.05-2.19-.27-5.47-3.59-6.04Z"/>
  <path class="cls-1" d="M381.55,52.03c1.78-.99,3.47-2.57,5.33-2.79,2.18-.26,4.61-1.08,6.85.78,1.73,1.43,4.65,1.26,6.14,4.51-2.59.15-4.88.93-6.59.24-2.5-1-4.25-1.77-6.92.03-1.7,1.15-4.05-.23-4.81-2.77Z"/>
  <path class="cls-1" d="M140.51,114.41c-7.3-2.63-14.33-1.93-21.64.32l-.04-4.71c6.06-.05,12.07-.17,18.09-.1,2.38.03,3.96,1.17,3.59,4.49Z"/>
  <path class="cls-1" d="M176.22,78.77c-6.58-.3-12.6-.65-16.84,5.31-1.7-2.31-1.9-3.95-.38-5.49,3.1-3.15,12.36-4.81,15.82-2.81.58.34.71,1.44,1.4,2.98Z"/>
  <path class="cls-1" d="M393.13,71.37c-1.34-.64-2.42-1.49-3.58-1.65-3.59-.49-6.89.28-9.8,2.69-2.07,1.72-2.18,1.59-5.75.83,2.31-3.96,5.21-6.56,9.98-6.48,2.18.04,4.41-.28,6.54.03,1.98.29,3.45,1.49,2.61,4.58Z"/>
  <path class="cls-1" d="M384.5,106.74c.59-1.61.74-2.98,1.17-3.08,3.86-.84,7.83-2.8,11.66-1.51,3.63,1.22,7.27,1.16,10.97,2.33-3.77.31-7.77-.05-11.26,1.1-4.06,1.34-7.89.36-12.55,1.15Z"/>
  <path class="cls-1" d="M179.81,69.8c1.43-.01,2.64-.02,3.94-.03,1.12-4.15,3.77-5.44,8.35-3.91-.6,1.11-1.02,2.08-1.61,2.94-1.3,1.87-3.26,2.23-5.38,2.78-1.32.34-1.99,2.82-3.24,4.02-.49.47-1.8.09-3.53.1.57-2.27,1.03-4.15,1.47-5.9Z"/>
  <path class="cls-1" d="M331.94,120.19c-4.66-.07-8.92.21-13.8-.11,2.21-4.54,5.85-4.19,8.99-4.4.49-1.21.86-2.15,1.53-3.8,2.6,2.54,3.77,4.67,3.28,8.31Z"/>
  <path class="cls-1" d="M414.13,56.37c-2.8,1.36-4.76,2.3-6.71,3.25.31.48.61.96.92,1.44-2.96-1.04-5.92-2.08-10.67-3.76,2.62-.67,3.8-.97,4.97-1.27-.38-.37-.77-.75-1.15-1.12,1.98.44,4.4,1.8,5.83,1.11,1.84-.9,3.17-1.82,6.82.36Z"/>
  <path class="cls-1" d="M372.74,50.66c0-1.21-.02-2.42-.03-3.65,3.42-2.47,5.96.53,8.84,1.01.01,1.63.02,2.84.03,4.05-3.02,0-5.65-2.46-8.84-1.4Z"/>
  <path class="cls-1" d="M180.04,69.8c-2.35-4.56-7.49-4.8-11.12-6.88.23-.49.46-.97.69-1.46,1.76-.2,3.52-.4,4.97-.56,1.98,1.95,3.69,3.64,5.44,5.35,0,1.14.02,2.34.03,3.55Z"/>
  <path class="cls-1" d="M576.37,103.81c-.69,2.63,1.5,6.13-2.21,8.53-1.27-2.48-2.52-4.94-3.9-7.62.58-.68,1.18-1.38,1.84-2.15,1.38.4,2.76.8,4.27,1.24Z"/>
  <path class="cls-1" d="M564.01,95.23c-2.14-2.96-6.06-3.44-6.67-7.27.42-.42,1.1-1.12,1.89-1.92,2.25,1.57,4.51,3.14,6.5,4.53-.61,1.65-1.08,2.9-1.73,4.65Z"/>
  <path class="cls-1" d="M430.4,108.08c.03,3.95.05,6.54.07,9.62-1.09.09-2.4.2-3.97.33-.92-3.88,1.31-6.26,3.9-9.95Z"/>
  <path class="cls-1" d="M308.75,74.96c2.45,2.22,3.98,3.61,5.9,5.35-1.22,1.34-2.24,2.46-3.03,3.33-1.97-.36-3.09-3.85-2.87-8.68Z"/>
  <path class="cls-1" d="M225.98,107.79q-1.71-6.63,2.68-9.39c-.17,1.95.22,3.79-.53,4.7-1.5,1.84,2.19,2.58.14,4.47-.48.05-1.39.13-2.29.22Z"/>
  <path class="cls-1" d="M365.65,74.93c.68-.69,1.37-1.39,2.34-2.38,2.31,1.41,5.67,1.47,7,6.47-3.28-2.92-7.29-.39-9.34-4.1Z"/>
  <path class="cls-1" d="M368.05,111.05q3.83,2,3,7.34-3.83-2-3-7.34Z"/>
  <path class="cls-1" d="M386.13,58.6c1.76-2.73,4.3-2.47,7.05-1.91.68,2.53-.77,3.54-2.73,4.13-2.1.63-3.26-.75-4.32-2.21Z"/>
  <path class="cls-1" d="M411.11,96.1c4,5.28,4.04,7.43,1.36,11.39-.17.02-.34.04-.51.06-.24-3.23-.48-6.47-.85-11.45Z"/>
  <path class="cls-1" d="M372.79,103.26c-2.89-.84-6.49-.72-7.26-5.66,3.72.84,6.61,1.54,7.26,5.66Z"/>
  <path class="cls-1" d="M231.85,105.7c0-1.29-.02-2.24-.03-3.56,1.8-.01,3.59-.03,5.62-.04.08.53.5,1.43.21,1.81-1.31,1.78-2.9,3.19-5.81,1.79Z"/>
  <path class="cls-1" d="M248.17,106.08c0-1.12-.01-1.77-.02-2.69,2.37-.02,4.65-.04,7.5-.06-.42,1.14-.64,2.55-1.01,2.59-2.1.23-4.24.14-6.47.15Z"/>
  <path class="cls-1" d="M267.15,102.99c0,.49,0,.98.01,1.47-2.14,1.78-4.58,1.64-7.81,1.38.82-1.67,1.37-2.79,1.86-3.78,2.18.34,4.06.63,5.94.92Z"/>
  <path class="cls-1" d="M246.38,105.85c-1.84.01-3.62.03-6.09.05.73-1.54,1.27-2.66,1.8-3.77,3.59,1.58,3.73,1.7,4.29,3.73Z"/>
  <path class="cls-1" d="M93.29,116.44c2.96-.51,5.64-1.25,7.62,2.23-2.83.45-5.5,1.16-7.62-2.23Z"/>
</svg>