<?xml version="1.0" encoding="UTF-8"?>
<svg id="_レイヤー_1" data-name="レイヤー 1" xmlns="http://www.w3.org/2000/svg" width="231.81" height="218.17" viewBox="0 0 231.81 218.17">
  <defs>
    <style>
      .cls-1 {
        fill: none;
        stroke: #bb231f;
        stroke-miterlimit: 10;
        stroke-width: 2.07px;
      }

      .cls-2 {
        fill: #231815;
      }
    </style>
  </defs>
  <circle class="cls-1" cx="115.9" cy="102.9" r="101.87"/>
  <g>
    <g>
      <path class="cls-2" d="M59.73,110.15c-4.31,0-14.37-2.1-20.02-8.56l.36-2.1c4.85,2.27,10.33,4.19,15.26,4.19,8.44,0,16.07-8.21,16.07-22.18,0-11.35-4.76-20.26-11.85-20.26-8.08,0-16.07,10.13-18.59,13.27-1.89,2.27-10.15,13.1-11.85,15.2,6.37,14.85,19.03,66.03,19.48,75.29.09.53.09,1.05.09,1.75,0,5.94-1.98,8.21-3.41,8.21-3.05,0-4.04-7.34-4.49-10.13-4.13-28.3-6.82-46.29-15.62-70.92-3.77,4.54-4.85,6.11-9.79,13.8-1.44,2.1-2.25,3.14-3.77,3.14-3.5,0-8.71-7.51-9.61-13.1l.72-1.75c1.71,1.57,4.22,2.8,6.02,2.8,2.96,0,11.04-9.08,13.38-12.4-.72-1.92-3.95-9.96-4.58-11.7-1.08-2.79-3.05-8.03-3.05-12.58,0-.35.09-12.23,6.73-12.23,2.51,0,3.23.35,10.78,5.76,1.53,1.05,5.66,4.02,6.64,4.02,1.62,0,2.96-1.92,2.96-5.76,0-8.73-5.84-13.63-9.97-16.95l.27-1.92c7.9.87,17.06,9.43,17.96,23.93,5.03-3.67,9.7-3.67,10.95-3.67,12.75,0,16.52,18.17,16.52,28.82,0,18.52-9.16,26.03-17.6,26.03ZM23.54,55.3c-2.87,0-3.68,3.49-3.68,5.41,0,4.19,4.94,16.25,6.82,20.79.18-.18,11.94-12.58,13.02-13.8-3.41-3.67-11.76-12.4-16.16-12.4Z"/>
      <path class="cls-2" d="M45.27,176.95c-4.6,0-5.76-7.38-6.39-11.35l-.07-.46c-3.84-26.33-6.44-44.12-14.36-67.21-2.17,2.77-3.66,5.03-7.41,10.85-1.45,2.11-2.78,4.06-5.45,4.06-5.08,0-10.64-8.94-11.58-14.78-.06-.36-.02-.73.12-1.07l.72-1.75c.25-.6.78-1.05,1.41-1.19.64-.14,1.3.04,1.78.48,1.54,1.42,3.58,2.27,4.66,2.27,1.69-.24,7.89-6.44,11.13-10.71-.41-1.05-1.01-2.56-1.63-4.13-1.08-2.73-2.23-5.63-2.58-6.6-1.02-2.64-3.17-8.22-3.17-13.25,0-5.28,1.84-14.22,8.73-14.22,3.2,0,4.35.69,11.94,6.14l.65.45c.98.68,3.83,2.66,4.91,3.14.25-.22.9-1.2.9-3.72,0-7.98-5.55-12.44-9.22-15.39-.55-.44-.82-1.14-.73-1.83l.27-1.92c.15-1.07,1.1-1.83,2.19-1.71,8.21.91,17.35,9.04,19.39,22.54,2.91-1.52,6.03-2.29,9.31-2.29,14.65,0,18.52,20.16,18.52,30.82,0,19.36-9.84,28.02-19.59,28.02-5.2,0-15.63-2.51-21.52-9.24-.4-.45-.57-1.06-.47-1.65l.36-2.1c.11-.61.49-1.14,1.04-1.43.55-.29,1.21-.31,1.77-.04,5.67,2.66,10.52,4,14.42,4,7,0,14.08-6.93,14.08-20.19,0-10.41-4.24-18.27-9.86-18.27-7.02,0-14.48,9.33-16.93,12.4-1.14,1.38-4.18,5.31-6.86,8.78-1.72,2.22-3.35,4.33-4.36,5.62,6.32,15.71,18.62,64.82,19.18,74.75.1.64.1,1.26.1,1.96,0,7.53-2.91,10.2-5.41,10.2ZM25.16,91.91c.11,0,.23,0,.35.03.71.12,1.29.62,1.53,1.29,8.98,25.14,11.66,43.5,15.72,71.3l.07.45c.97,6.17,1.94,7.61,2.39,7.93.44-.38,1.47-2.01,1.47-6.16,0-.64,0-1.05-.06-1.41-.01-.08-.02-.16-.03-.24-.42-8.75-12.8-59.39-19.32-74.6-.29-.68-.18-1.47.29-2.05.76-.93,2.83-3.61,5.05-6.48,2.83-3.66,5.76-7.45,6.82-8.73,2.83-3.54,11.19-13.99,20.12-13.99,8.02,0,13.85,9.36,13.85,22.26,0,15.87-9.09,24.18-18.07,24.18-2.95,0-6.2-.6-9.83-1.83,5.1,3.18,11.34,4.3,14.23,4.3,7.77,0,15.6-7.43,15.6-24.03,0-10.78-3.87-26.83-14.53-26.83-3.5,0-6.79,1.1-9.78,3.28-.59.43-1.36.5-2.02.19-.66-.31-1.1-.95-1.14-1.68-.63-10.24-5.62-17.35-11.19-20.42,3.44,3.33,6.92,8.11,6.92,15.24,0,5.73-2.67,7.76-4.96,7.76-.81,0-1.79-.4-3.78-1.67,1.91,1.76,4.01,3.87,6.32,6.35.7.75.71,1.91.03,2.68-.95,1.08-12.73,13.52-13.12,13.91-.47.46-1.14.66-1.79.52-.65-.13-1.19-.58-1.44-1.19-4.69-11.31-6.98-18.36-6.98-21.55,0-4.19,2.47-8.84,7.89-7-2.75-1.83-3.27-1.83-4.54-1.83-4.54,0-4.74,10.13-4.74,10.23,0,4.29,2.05,9.59,2.92,11.86.36,1,1.49,3.84,2.55,6.52.88,2.22,1.71,4.33,2.04,5.2.23.62.14,1.31-.24,1.85-.09.13-10.01,13.25-15.01,13.25-1.37,0-2.85-.47-4.21-1.15,1.56,4.63,5.38,9.21,7.08,9.21.42,0,.79-.33,2.13-2.28,4.95-7.71,6.03-9.29,9.9-13.95.38-.46.95-.72,1.54-.72ZM23.54,57.3c-1.39,0-1.69,2.74-1.69,3.42,0,1.37.75,5.41,5.51,17.19,2.71-2.86,7.36-7.78,9.61-10.18-9.19-9.64-12.59-10.42-13.43-10.42Z"/>
    </g>
    <g>
      <path class="cls-2" d="M131.12,163.43c-4.4,6.29-11.67,9.78-18.05,9.78-8.71,0-17.15-6.81-17.15-19.74,0-9.78,5.84-19.04,12.93-19.04,6.29,0,9.16,4.37,11.76,10.83,2.15,5.24,2.78,9.43,3.32,13.1,1.62-1.4,3.32-2.97,5.21-7.68,3.14-7.69,3.86-16.6,3.86-23.41,0-18.34-5.39-30.05-13.38-30.05-7.36,0-17.6,10.83-21.37,16.94-3.23,5.24-5.93,10.83-7.54,14.33-3.77,8.03-4.31,8.56-5.48,8.56-1.98,0-2.25-2.44-2.25-4.54s.63-11.35,1.26-13.28c.54-1.92,4.94-6.99,5.75-8.21,5.48-9.43,9.34-18.34,16.25-33.89,1.62-3.84,9.16-20.09,10.5-23.58.54-1.4,1.71-4.37,1.71-5.59,0-1.05-.45-1.4-.9-1.4-3.23,0-11.04,7.86-12.03,8.91-4.4,4.54-4.94,5.07-6.02,5.07-.18,0-4.85-.7-6.64-6.46-.72-2.1-1.98-6.99-2.51-13.8l.9-.35c3.14,6.11,4.94,8.38,8.89,8.38,6.82,0,14.82-5.77,18.5-11.35.99-1.4,1.53-2.27,2.96-2.27,2.87,0,9.07,9.26,9.07,13.62,0,3.14-.45,3.32-4.22,5.24-1.17.52-5.3,6.29-6.11,7.86-8.53,16.59-8.98,17.64-15.26,30.04-2.25,4.54-5.75,10.66-6.91,13.8,3.23-3.67,14.55-15.37,22.54-15.37,8.44,0,19.22,11,19.22,37.03,0,15.55-3.86,29.35-8.8,36.51ZM107.6,142.12c-.36,0-7.63,0-7.63,9.96,0,5.07,2.07,11.53,10.51,11.53,2.51,0,4.58-.18,6.91-1.92-1.35-11.7-4.4-19.56-9.79-19.56Z"/>
      <path class="cls-2" d="M113.07,175.21c-9.51,0-19.14-7.47-19.14-21.74,0-11.4,6.83-21.03,14.92-21.03s11.26,6.24,13.61,12.08c1.47,3.58,2.26,6.72,2.78,9.47.65-.97,1.33-2.26,2.04-4.05,2.47-6.04,3.72-13.66,3.72-22.67,0-16.52-4.68-28.05-11.38-28.05-5.98,0-15.65,9.47-19.67,16-2.42,3.92-4.85,8.54-7.43,14.12-3.76,8.02-4.65,9.71-7.29,9.71-1.93,0-4.24-1.13-4.24-6.54,0-1.97.59-11.57,1.36-13.9.43-1.54,2.29-3.98,4.67-6.99.6-.76,1.09-1.37,1.31-1.7,4.97-8.57,8.62-16.78,14.67-30.39l1.42-3.21c.68-1.61,2.44-5.5,4.31-9.61,2.53-5.58,5.4-11.91,6.16-13.88.66-1.7,1.1-2.95,1.34-3.79-2.4,1.33-6.71,5.09-9.25,7.79-4.78,4.94-5.51,5.69-7.47,5.69-1.21,0-6.53-1.4-8.55-7.87-.92-2.67-2.1-7.85-2.6-14.23-.07-.88.45-1.7,1.27-2.02l.9-.35c.95-.37,2.03.04,2.5.95,3.24,6.29,4.55,7.3,7.12,7.3,6.14,0,13.52-5.43,16.83-10.46l.18-.26c.96-1.37,2.05-2.91,4.45-2.91,4.63,0,11.06,10.84,11.06,15.62,0,4.13-1.15,4.9-5.12,6.92l-.19.09c-.88.63-4.44,5.45-5.24,7-5.83,11.34-7.88,15.41-10.6,20.81-1.26,2.5-2.67,5.29-4.66,9.22-.5,1.01-1.07,2.11-1.66,3.25,4.7-3.94,10.5-7.71,15.51-7.71,10.54,0,21.21,13.41,21.21,39.03,0,14.8-3.59,29.58-9.15,37.64,0,0,0,0,0,.01-4.52,6.46-12.25,10.63-19.68,10.63ZM97.97,151.94c-.03.51-.05,1.02-.05,1.53,0,12.19,7.86,17.75,15.16,17.75,6.17,0,12.61-3.5,16.41-8.93,5.13-7.44,8.44-21.32,8.44-35.37s-4.68-35.04-17.22-35.04c-6.4,0-16.56,9.61-21.04,14.7-.64.72-1.69.89-2.52.39-.82-.49-1.18-1.51-.85-2.41.8-2.14,2.5-5.37,4.3-8.78.95-1.8,1.9-3.6,2.7-5.21,2-3.94,3.4-6.73,4.66-9.23,2.73-5.41,4.78-9.49,10.62-20.84.5-.98,5-7.84,7.06-8.77l.1-.05q2.94-1.5,2.94-3.37c0-3.56-5.33-11.21-7.16-11.64-.18,0-.24,0-1.1,1.23l-.15.21c-3.93,5.97-12.55,12.2-20.12,12.2-3.09,0-5.17-1.23-6.95-3.36.64,3.68,1.36,5.91,1.56,6.48,1.26,4.05,4.08,4.93,4.8,5.1.51-.28,2.3-2.12,4.54-4.44.9-.96,9.09-9.52,13.46-9.52,1.39,0,2.89,1.06,2.89,3.39,0,1.29-.68,3.3-1.77,6.13-.87,2.25-3.64,8.35-6.32,14.26-1.86,4.09-3.61,7.95-4.28,9.55l-1.44,3.24c-6.1,13.73-9.78,22.02-14.93,30.87-.31.48-.87,1.19-1.57,2.07-1.11,1.4-3.71,4.69-3.98,5.67-.51,1.58-1.18,10.36-1.18,12.74,0,1.33.13,2,.25,2.34.89-1.26,2.73-5.2,3.68-7.2,2.64-5.71,5.15-10.47,7.65-14.53,3.85-6.24,14.57-17.89,23.07-17.89,9.34,0,15.37,12.58,15.37,32.04,0,9.53-1.35,17.66-4.01,24.16-1.96,4.9-3.84,6.78-5.75,8.44-.55.48-1.32.61-2,.36-.68-.25-1.17-.86-1.28-1.58-.52-3.55-1.11-7.57-3.19-12.63-2.86-7.09-5.45-9.59-9.92-9.59-3.85,0-7.47,3.67-9.42,8.79,2.02-3.89,5.69-5.1,8.17-5.1,6.18,0,10.14,7.18,11.77,21.33.08.71-.22,1.4-.79,1.83-2.86,2.14-5.47,2.32-8.11,2.32-7.83,0-12.5-5.06-12.5-13.52v-.14ZM131.12,163.43h.02-.02ZM107.6,144.11c-.94,0-5.64.38-5.64,7.96,0,4.35,1.48,9.54,8.51,9.54,2.08,0,3.41-.15,4.79-.91-1.36-10.56-4.13-16.59-7.66-16.59Z"/>
    </g>
    <g>
      <path class="cls-2" d="M223.71,49.89h-54.41c-2.06,6.64-8.53,27.43-20.65,37.91l-.54-.87c14.01-24.98,17.78-52.06,19.39-65.16l8.89,6.29c.54.35.99,1.4.99,2.45,0,2.62-1.53,2.97-3.95,3.14-1.26,6.11-2.07,8.91-2.87,12.05h42.2l3.5-8.73c.99-2.44,1.53-2.97,2.25-2.97.63,0,.81.17,2.15,2.8l3.23,5.94c1.71,3.14,1.89,3.49,1.89,4.72,0,2.44-.99,2.44-2.06,2.44ZM227.21,184.04c-2.96,0-7.09-6.11-9.61-11.7-5.21-12.05-10.15-28.47-11.13-80.35h-52.62l-1.35-4.19h52.98l3.05-7.34c.54-1.22,1.17-2.8,2.25-2.8.81,0,1.35.7,2.6,3.32l3.32,6.81c.45,1.05.81,1.75.81,3.32,0,2.62-.99,3.14-3.86,4.54-.18,14.85.99,33.89,3.5,49.96,1.17,7.34,3.59,16.6,5.12,16.6.9,0,1.26-1.75,1.62-3.14.99-4.19,1.35-6.46,4.31-27.25h.99c-.54,9.08-1.71,29.35-1.71,31.44,0,1.57.09,6.29,1.35,10.83.18.7.99,3.84.99,5.59,0,2.44-1.17,4.37-2.6,4.37ZM195.87,171.46c-2.6,0-3.77-3.49-8.17-16.94-1.44-4.19-2.96-8.21-5.57-14.15-9.43,20.09-18.59,31.27-28.73,37.38l-.72-1.57c13.92-17.29,21.01-32.84,25.59-44.02-4.58-8.91-9.52-17.29-15.44-22.53l.27-1.39c2.87,1.22,9.61,4.19,18.23,15.72,4.76-13.8,6.64-22.88,7.72-27.77l8.53,7.69c.63.52.99,1.92.99,2.79,0,2.1-1.44,2.45-1.8,2.62-.09,0-.99.17-2.87.52-2.33,7.16-4.49,13.45-7.63,21.31,9.34,15.37,12.66,27.77,12.66,33.89,0,2.97-1.53,6.46-3.05,6.46ZM218.05,69.97h-52.17l-1.26-4.19h43.01l3.68-8.38c.99-2.1,1.44-3.32,2.33-3.32.54,0,1.08.35,2.42,3.14l3.05,6.46c.9,1.92,1.17,3.14,1.17,4.02,0,2.27-.9,2.27-2.24,2.27Z"/>
      <path class="cls-2" d="M227.21,186.04c-5.36,0-10.46-10.73-11.43-12.88-5.11-11.82-10.17-27.68-11.27-79.18h-50.66c-.87,0-1.63-.56-1.9-1.39l-1.27-3.95c-.24.22-.49.44-.74.65-.44.38-1.03.55-1.61.46s-1.09-.43-1.39-.92l-.54-.87c-.38-.62-.4-1.39-.04-2.02,14.37-25.63,17.85-53.81,19.15-64.42.09-.7.53-1.3,1.17-1.58.64-.28,1.39-.21,1.96.2l8.89,6.29c1.24.81,1.83,2.64,1.83,4.08,0,3.65-2.35,4.65-4.29,4.97-.79,3.71-1.4,6.14-1.95,8.23h38.27l3-7.48c.72-1.78,1.71-4.22,4.1-4.22,1.94,0,2.56,1.22,3.93,3.88l3.21,5.89c1.76,3.25,2.13,3.92,2.13,5.67,0,4.44-3.06,4.44-4.06,4.44h-52.95c-.9,2.86-2.3,7.13-4.27,11.91h39.84l3.5-7.92c.9-1.94,1.75-3.78,3.82-3.78s3.02,1.77,4.22,4.27l3.06,6.48c.93,1.99,1.36,3.53,1.36,4.87,0,4.26-2.97,4.26-4.24,4.26h-52.17c-.88,0-1.66-.58-1.91-1.42l-.2-.66c-2.68,5.55-6.08,11.26-10.27,15.91h50.65l2.64-6.34c.66-1.51,1.66-3.79,3.99-3.79s3.26,2.06,4.4,4.45l3.46,7.12c.43.99.87,2.01.87,3.87,0,3.39-1.57,4.61-3.87,5.79-.11,15.44,1.21,33.86,3.49,48.41.84,5.31,2.03,9.94,2.96,12.69.87-3.76,1.33-6.76,4.13-26.47.14-.98.98-1.71,1.98-1.71h.99c.55,0,1.07.23,1.45.63.38.4.57.94.54,1.49-.66,11.1-1.7,29.43-1.7,31.32,0,1.71.12,6.14,1.27,10.3.49,1.89,1.06,4.45,1.06,6.12,0,3.63-1.98,6.36-4.6,6.36ZM155.3,89.99h51.16c1.09,0,1.97.87,1.99,1.96,1,52.33,5.97,68.02,10.97,79.6,2.85,6.34,6.33,10.31,7.68,10.49.22-.19.7-.99.7-2.37,0-.95-.35-2.85-.92-5.09-1.23-4.43-1.41-9-1.41-11.33,0-.4.04-1.39.1-2.79-.44,1.66-1.19,3.74-3.32,3.74-2.77,0-5.16-6.15-7.09-18.28-2.37-15.14-3.72-34.41-3.53-50.3,0-.76.44-1.44,1.12-1.77,2.74-1.33,2.74-1.36,2.74-2.75,0-1.04-.18-1.46-.54-2.29l-.11-.25-3.28-6.72c-.34-.7-.6-1.21-.79-1.56-.13.27-.26.56-.35.77l-.09.2-3.04,7.3c-.31.74-1.04,1.23-1.84,1.23h-50.24l.07.2ZM169.06,25.31c-1.39,10.66-4.56,30.88-13.61,51.36,6.59-10.17,10.41-22.46,11.94-27.36.26-.83,1.03-1.41,1.91-1.41h54.47c.01-.12.02-.26.02-.45,0-.68,0-.74-1.64-3.77l-3.23-5.93c-.11-.22-.28-.54-.45-.86-.1.23-.22.5-.35.83l-3.5,8.73c-.3.76-1.04,1.25-1.85,1.25h-42.2c-.62,0-1.2-.28-1.58-.77-.38-.49-.51-1.12-.36-1.72l.45-1.71c.68-2.6,1.39-5.3,2.41-10.25.18-.87.92-1.52,1.81-1.59,1.53-.11,1.9-.28,1.98-.37,0,0,.12-.17.12-.79,0-.42-.15-.8-.23-.9l-6.09-4.29ZM167.36,67.98h50.93c0-.08,0-.17,0-.27,0-.71-.33-1.78-.98-3.18l-3.05-6.46c-.22-.45-.4-.81-.56-1.1-.09.19-.18.38-.26.57l-.33.71-3.66,8.34c-.32.72-1.03,1.19-1.83,1.19h-40.33l.06.2ZM153.4,179.75c-.2,0-.4-.03-.59-.09-.54-.17-.99-.56-1.23-1.08l-.72-1.57c-.31-.69-.21-1.49.26-2.08,13.16-16.35,20.25-31.31,24.95-42.67-3.97-7.67-8.79-16.02-14.57-21.14-.53-.47-.77-1.18-.64-1.87l.27-1.39c.11-.59.49-1.1,1.02-1.38.53-.28,1.16-.31,1.72-.07,2.49,1.06,8.76,3.72,16.74,13.42,3.62-11,5.27-18.53,6.29-23.2l.19-.86c.15-.69.66-1.25,1.34-1.47.67-.22,1.42-.06,1.94.42l8.53,7.69c1.29,1.07,1.65,3.27,1.65,4.28,0,1.47-.5,3.42-2.89,4.41-.24.1-.64.21-.9.21.03,0,.11,0,.22-.01-.16.02-.61.11-1.41.26l-.16.03c-2.19,6.68-4.18,12.42-6.94,19.38,9.16,15.32,12.44,27.61,12.44,34.07,0,3.46-1.8,8.46-5.05,8.46-4.07,0-5.22-3.52-10.07-18.32-1.16-3.39-2.33-6.48-3.78-9.95-8.54,17.17-17.36,28.11-27.59,34.28-.31.19-.67.29-1.03.29ZM170.3,114.97c3.73,5,6.95,10.85,9.74,16.28.27.52.29,1.13.07,1.67-4.18,10.21-10.25,23.42-20.89,38,7.49-6.76,14.32-16.96,21.1-31.39.33-.71,1.05-1.15,1.83-1.15.78,0,1.49.48,1.8,1.19,2.36,5.38,3.99,9.53,5.63,14.3,2.78,8.51,4.84,14.78,6.06,15.52.49-.61,1.29-2.44,1.29-4.4,0-5.76-3.24-17.82-12.37-32.85-.33-.54-.38-1.19-.15-1.78,3.07-7.68,5.18-13.8,7.59-21.19.23-.7.82-1.21,1.53-1.34l1.32-.25c.71-.13,1.12-.21,1.37-.25.29-.12.35-.18.35-.69s-.21-1.15-.34-1.33l-5.97-5.37c-1.2,5.37-3.17,13.41-7.05,24.65-.24.7-.85,1.21-1.58,1.32-.73.11-1.46-.19-1.91-.78-3.52-4.71-6.72-7.94-9.42-10.17Z"/>
    </g>
  </g>
  <g>
    <path class="cls-2" d="M166.16,212.35v.41c-.57.02-.83.08-1.01.26-.19.18-.24.48-.24,1.42v1.36c0,.83.02,1.08.05,1.6-.75.06-1.1.13-1.88.35-1.13.32-1.79.43-2.63.43-3.48,0-5.55-2.23-5.55-6.01s2.23-6.41,5.7-6.41c.81,0,1.2.06,2.46.37.24.06.48.1.72.1.3,0,.54-.05.94-.21v3.7l-.59.02c-.16-.96-.38-1.6-.8-2.17-.62-.88-1.55-1.36-2.6-1.36-1.24,0-2.22.62-2.78,1.79-.49,1.04-.75,2.35-.75,3.88,0,2.22.56,4.12,1.48,5.07.51.51,1.23.8,2.03.8.48,0,1.04-.11,1.56-.33.3-.11.43-.19.65-.4v-2.73c0-1.31-.14-1.45-1.47-1.5v-.41h4.71Z"/>
    <path class="cls-2" d="M170.87,215.86c0,1.45.13,1.6,1.44,1.64v.41h-4.95v-.41c1.31-.05,1.44-.19,1.44-1.64v-7.8c0-1.45-.13-1.6-1.37-1.66v-.41h4.88c1.34,0,2.46.18,3.1.48,1.01.48,1.47,1.24,1.47,2.43,0,1.93-1.2,2.94-3.72,3.13v.13c.83.1,1.4.35,1.98.85.53.45.8.94,1.56,2.73.62,1.45.89,1.75,1.64,1.82v.38h-3.14c-.75-2.23-1.2-3.41-1.66-4.31-.51-.99-1.01-1.32-2.03-1.32h-.64v3.57ZM171.73,211.82c1.9,0,2.92-.96,2.92-2.74s-.91-2.63-2.81-2.63h-.97v5.38h.86Z"/>
    <path class="cls-2" d="M180.68,207.63c.93-1.2,2.49-1.88,4.28-1.88s3.3.67,4.26,1.88c.88,1.08,1.36,2.65,1.36,4.32s-.48,3.25-1.36,4.34c-.96,1.2-2.49,1.88-4.26,1.88s-3.33-.69-4.28-1.88c-.86-1.08-1.36-2.66-1.36-4.34s.48-3.21,1.36-4.32ZM182.47,216.24c.51.99,1.36,1.5,2.49,1.5s1.96-.51,2.47-1.5c.56-1.09.81-2.41.81-4.29s-.26-3.19-.81-4.28c-.53-1-1.34-1.5-2.47-1.5s-1.98.51-2.49,1.5c-.56,1.08-.81,2.44-.81,4.28s.26,3.19.81,4.29Z"/>
    <path class="cls-2" d="M196.66,205.98v.41c-1.24.05-1.37.21-1.37,1.66v5.04c0,1.5.16,2.39.57,3.1.51.86,1.39,1.32,2.52,1.32,1.34,0,2.38-.64,2.86-1.77.26-.61.4-1.61.4-2.86v-3.72c0-2.25-.27-2.7-1.64-2.76v-.43h3.92v.43c-1.32.06-1.63.57-1.63,2.76v3.73c0,1.69-.18,2.65-.64,3.43-.75,1.26-1.93,1.83-3.75,1.83s-3.14-.54-3.92-1.55c-.57-.77-.77-1.52-.77-3.14v-5.42c0-1.45-.13-1.61-1.39-1.66v-.41h4.83Z"/>
    <path class="cls-2" d="M208.37,215.86c0,1.45.14,1.6,1.53,1.64v.41h-5.04v-.41c1.31-.05,1.44-.19,1.44-1.64v-7.8c0-1.45-.13-1.6-1.37-1.66v-.41h4.8c3.25,0,4.67,1,4.67,3.32,0,1.63-.67,2.66-2.04,3.18-.7.26-1.87.41-3.21.41h-.78v2.97ZM209.2,212.43c.99,0,1.74-.22,2.2-.65.51-.49.78-1.34.78-2.38,0-1.96-.94-2.95-2.79-2.95h-1.02v5.98h.83Z"/>
  </g>
</svg>